<svg version="1.1" viewBox="0.0 0.0 960.0 720.0" fill="none" stroke="none" stroke-linecap="square" stroke-miterlimit="10" xmlns:xlink="http://www.w3.org/1999/xlink" xmlns="http://www.w3.org/2000/svg"><clipPath id="p.0"><path d="m0 0l960.0 0l0 720.0l-960.0 0l0 -720.0z" clip-rule="nonzero"/></clipPath><g clip-path="url(#p.0)"><path fill="#000000" fill-opacity="0.0" d="m0 0l960.0 0l0 720.0l-960.0 0z" fill-rule="evenodd"/><path fill="#00ff00" d="m62.03937 200.99475l836.0 0l0 312.72443l-836.0 0z" fill-rule="evenodd"/><path stroke="#000000" stroke-width="1.0" stroke-linejoin="round" stroke-linecap="butt" d="m62.03937 200.99475l836.0 0l0 312.72443l-836.0 0z" fill-rule="evenodd"/><path fill="#000000" fill-opacity="0.0" d="m773.2126 202.2546l2.5197144 312.72443" fill-rule="evenodd"/><path stroke="#000000" stroke-width="1.0" stroke-linejoin="round" stroke-linecap="butt" d="m773.2126 202.2546l2.5197144 312.72443" fill-rule="evenodd"/><path fill="#000000" fill-opacity="0.0" d="m181.2126 202.2546l2.5196838 312.72443" fill-rule="evenodd"/><path stroke="#000000" stroke-width="1.0" stroke-linejoin="round" stroke-linecap="butt" d="m181.2126 202.2546l2.5196838 312.72443" fill-rule="evenodd"/><path fill="#000000" d="m788.3438 226.85039l0 0c0 -5.922928 4.8015137 -10.724396 10.724426 -10.724396l0 0c2.8442993 0 5.5720825 1.1298828 7.583313 3.141098c2.0112305 2.0112152 3.1411133 4.7390137 3.1411133 7.5832977l0 0c0 5.922928 -4.8015137 10.724411 -10.724426 10.724411l0 0c-5.9229126 0 -10.724426 -4.801483 -10.724426 -10.724411z" fill-rule="evenodd"/><path stroke="#000000" stroke-width="1.0" stroke-linejoin="round" stroke-linecap="butt" d="m788.3438 226.85039l0 0c0 -5.922928 4.8015137 -10.724396 10.724426 -10.724396l0 0c2.8442993 0 5.5720825 1.1298828 7.583313 3.141098c2.0112305 2.0112152 3.1411133 4.7390137 3.1411133 7.5832977l0 0c0 5.922928 -4.8015137 10.724411 -10.724426 10.724411l0 0c-5.9229126 0 -10.724426 -4.801483 -10.724426 -10.724411z" fill-rule="evenodd"/><path fill="#000000" d="m788.3438 266.8504l0 0c0 -5.922943 4.8015137 -10.724426 10.724426 -10.724426l0 0c2.8442993 0 5.5720825 1.1298828 7.583313 3.1411133c2.0112305 2.0112305 3.1411133 4.7390137 3.1411133 7.583313l0 0c0 5.9229126 -4.8015137 10.724396 -10.724426 10.724396l0 0c-5.9229126 0 -10.724426 -4.801483 -10.724426 -10.724396z" fill-rule="evenodd"/><path stroke="#000000" stroke-width="1.0" stroke-linejoin="round" stroke-linecap="butt" d="m788.3438 266.8504l0 0c0 -5.922943 4.8015137 -10.724426 10.724426 -10.724426l0 0c2.8442993 0 5.5720825 1.1298828 7.583313 3.1411133c2.0112305 2.0112305 3.1411133 4.7390137 3.1411133 7.583313l0 0c0 5.9229126 -4.8015137 10.724396 -10.724426 10.724396l0 0c-5.9229126 0 -10.724426 -4.801483 -10.724426 -10.724396z" fill-rule="evenodd"/><path fill="#000000" d="m788.3438 306.8504l0 0c0 -5.922943 4.8015137 -10.724426 10.724426 -10.724426l0 0c2.8442993 0 5.5720825 1.1298828 7.583313 3.1411133c2.0112305 2.0112305 3.1411133 4.7390137 3.1411133 7.583313l0 0c0 5.9229126 -4.8015137 10.724396 -10.724426 10.724396l0 0c-5.9229126 0 -10.724426 -4.801483 -10.724426 -10.724396z" fill-rule="evenodd"/><path stroke="#000000" stroke-width="1.0" stroke-linejoin="round" stroke-linecap="butt" d="m788.3438 306.8504l0 0c0 -5.922943 4.8015137 -10.724426 10.724426 -10.724426l0 0c2.8442993 0 5.5720825 1.1298828 7.583313 3.1411133c2.0112305 2.0112305 3.1411133 4.7390137 3.1411133 7.583313l0 0c0 5.9229126 -4.8015137 10.724396 -10.724426 10.724396l0 0c-5.9229126 0 -10.724426 -4.801483 -10.724426 -10.724396z" fill-rule="evenodd"/><path fill="#000000" d="m788.3438 346.8504l0 0c0 -5.922943 4.8015137 -10.724426 10.724426 -10.724426l0 0c2.8442993 0 5.5720825 1.1298828 7.583313 3.1411133c2.0112305 2.0112305 3.1411133 4.7390137 3.1411133 7.583313l0 0c0 5.9229126 -4.8015137 10.724396 -10.724426 10.724396l0 0c-5.9229126 0 -10.724426 -4.801483 -10.724426 -10.724396z" fill-rule="evenodd"/><path stroke="#000000" stroke-width="1.0" stroke-linejoin="round" stroke-linecap="butt" d="m788.3438 346.8504l0 0c0 -5.922943 4.8015137 -10.724426 10.724426 -10.724426l0 0c2.8442993 0 5.5720825 1.1298828 7.583313 3.1411133c2.0112305 2.0112305 3.1411133 4.7390137 3.1411133 7.583313l0 0c0 5.9229126 -4.8015137 10.724396 -10.724426 10.724396l0 0c-5.9229126 0 -10.724426 -4.801483 -10.724426 -10.724396z" fill-rule="evenodd"/><path fill="#000000" d="m788.3438 386.8504l0 0c0 -5.922943 4.8015137 -10.724426 10.724426 -10.724426l0 0c2.8442993 0 5.5720825 1.1298828 7.583313 3.1411133c2.0112305 2.0112305 3.1411133 4.7390137 3.1411133 7.583313l0 0c0 5.9229126 -4.8015137 10.724396 -10.724426 10.724396l0 0c-5.9229126 0 -10.724426 -4.801483 -10.724426 -10.724396z" fill-rule="evenodd"/><path stroke="#000000" stroke-width="1.0" stroke-linejoin="round" stroke-linecap="butt" d="m788.3438 386.8504l0 0c0 -5.922943 4.8015137 -10.724426 10.724426 -10.724426l0 0c2.8442993 0 5.5720825 1.1298828 7.583313 3.1411133c2.0112305 2.0112305 3.1411133 4.7390137 3.1411133 7.583313l0 0c0 5.9229126 -4.8015137 10.724396 -10.724426 10.724396l0 0c-5.9229126 0 -10.724426 -4.801483 -10.724426 -10.724396z" fill-rule="evenodd"/><path fill="#000000" d="m788.3438 426.8504l0 0c0 -5.922943 4.8015137 -10.724426 10.724426 -10.724426l0 0c2.8442993 0 5.5720825 1.1298828 7.583313 3.1411133c2.0112305 2.0112305 3.1411133 4.7390137 3.1411133 7.583313l0 0c0 5.9229126 -4.8015137 10.724396 -10.724426 10.724396l0 0c-5.9229126 0 -10.724426 -4.801483 -10.724426 -10.724396z" fill-rule="evenodd"/><path stroke="#000000" stroke-width="1.0" stroke-linejoin="round" stroke-linecap="butt" d="m788.3438 426.8504l0 0c0 -5.922943 4.8015137 -10.724426 10.724426 -10.724426l0 0c2.8442993 0 5.5720825 1.1298828 7.583313 3.1411133c2.0112305 2.0112305 3.1411133 4.7390137 3.1411133 7.583313l0 0c0 5.9229126 -4.8015137 10.724396 -10.724426 10.724396l0 0c-5.9229126 0 -10.724426 -4.801483 -10.724426 -10.724396z" fill-rule="evenodd"/><path fill="#000000" d="m788.3438 466.8504l0 0c0 -5.922943 4.8015137 -10.724426 10.724426 -10.724426l0 0c2.8442993 0 5.5720825 1.1298828 7.583313 3.1411133c2.0112305 2.0112305 3.1411133 4.7390137 3.1411133 7.583313l0 0c0 5.9229126 -4.8015137 10.724396 -10.724426 10.724396l0 0c-5.9229126 0 -10.724426 -4.801483 -10.724426 -10.724396z" fill-rule="evenodd"/><path stroke="#000000" stroke-width="1.0" stroke-linejoin="round" stroke-linecap="butt" d="m788.3438 466.8504l0 0c0 -5.922943 4.8015137 -10.724426 10.724426 -10.724426l0 0c2.8442993 0 5.5720825 1.1298828 7.583313 3.1411133c2.0112305 2.0112305 3.1411133 4.7390137 3.1411133 7.583313l0 0c0 5.9229126 -4.8015137 10.724396 -10.724426 10.724396l0 0c-5.9229126 0 -10.724426 -4.801483 -10.724426 -10.724396z" fill-rule="evenodd"/><path fill="#ffffff" d="m148.34383 226.85039l0 0c0 -5.922928 4.801483 -10.724396 10.724411 -10.724396l0 0c2.8442993 0 5.5720825 1.1298828 7.583313 3.141098c2.0112152 2.0112152 3.141098 4.7390137 3.141098 7.5832977l0 0c0 5.922928 -4.801483 10.724411 -10.724411 10.724411l0 0c-5.922928 0 -10.724411 -4.801483 -10.724411 -10.724411z" fill-rule="evenodd"/><path stroke="#000000" stroke-width="1.0" stroke-linejoin="round" stroke-linecap="butt" d="m148.34383 226.85039l0 0c0 -5.922928 4.801483 -10.724396 10.724411 -10.724396l0 0c2.8442993 0 5.5720825 1.1298828 7.583313 3.141098c2.0112152 2.0112152 3.141098 4.7390137 3.141098 7.5832977l0 0c0 5.922928 -4.801483 10.724411 -10.724411 10.724411l0 0c-5.922928 0 -10.724411 -4.801483 -10.724411 -10.724411z" fill-rule="evenodd"/><path fill="#ffffff" d="m148.34383 266.8504l0 0c0 -5.922943 4.801483 -10.724426 10.724411 -10.724426l0 0c2.8442993 0 5.5720825 1.1298828 7.583313 3.1411133c2.0112152 2.0112305 3.141098 4.7390137 3.141098 7.583313l0 0c0 5.9229126 -4.801483 10.724396 -10.724411 10.724396l0 0c-5.922928 0 -10.724411 -4.801483 -10.724411 -10.724396z" fill-rule="evenodd"/><path stroke="#000000" stroke-width="1.0" stroke-linejoin="round" stroke-linecap="butt" d="m148.34383 266.8504l0 0c0 -5.922943 4.801483 -10.724426 10.724411 -10.724426l0 0c2.8442993 0 5.5720825 1.1298828 7.583313 3.1411133c2.0112152 2.0112305 3.141098 4.7390137 3.141098 7.583313l0 0c0 5.9229126 -4.801483 10.724396 -10.724411 10.724396l0 0c-5.922928 0 -10.724411 -4.801483 -10.724411 -10.724396z" fill-rule="evenodd"/><path fill="#ffffff" d="m148.34383 306.8504l0 0c0 -5.922943 4.801483 -10.724426 10.724411 -10.724426l0 0c2.8442993 0 5.5720825 1.1298828 7.583313 3.1411133c2.0112152 2.0112305 3.141098 4.7390137 3.141098 7.583313l0 0c0 5.9229126 -4.801483 10.724396 -10.724411 10.724396l0 0c-5.922928 0 -10.724411 -4.801483 -10.724411 -10.724396z" fill-rule="evenodd"/><path stroke="#000000" stroke-width="1.0" stroke-linejoin="round" stroke-linecap="butt" d="m148.34383 306.8504l0 0c0 -5.922943 4.801483 -10.724426 10.724411 -10.724426l0 0c2.8442993 0 5.5720825 1.1298828 7.583313 3.1411133c2.0112152 2.0112305 3.141098 4.7390137 3.141098 7.583313l0 0c0 5.9229126 -4.801483 10.724396 -10.724411 10.724396l0 0c-5.922928 0 -10.724411 -4.801483 -10.724411 -10.724396z" fill-rule="evenodd"/><path fill="#ffffff" d="m148.34383 346.8504l0 0c0 -5.922943 4.801483 -10.724426 10.724411 -10.724426l0 0c2.8442993 0 5.5720825 1.1298828 7.583313 3.1411133c2.0112152 2.0112305 3.141098 4.7390137 3.141098 7.583313l0 0c0 5.9229126 -4.801483 10.724396 -10.724411 10.724396l0 0c-5.922928 0 -10.724411 -4.801483 -10.724411 -10.724396z" fill-rule="evenodd"/><path stroke="#000000" stroke-width="1.0" stroke-linejoin="round" stroke-linecap="butt" d="m148.34383 346.8504l0 0c0 -5.922943 4.801483 -10.724426 10.724411 -10.724426l0 0c2.8442993 0 5.5720825 1.1298828 7.583313 3.1411133c2.0112152 2.0112305 3.141098 4.7390137 3.141098 7.583313l0 0c0 5.9229126 -4.801483 10.724396 -10.724411 10.724396l0 0c-5.922928 0 -10.724411 -4.801483 -10.724411 -10.724396z" fill-rule="evenodd"/><path fill="#ffffff" d="m148.34383 386.8504l0 0c0 -5.922943 4.801483 -10.724426 10.724411 -10.724426l0 0c2.8442993 0 5.5720825 1.1298828 7.583313 3.1411133c2.0112152 2.0112305 3.141098 4.7390137 3.141098 7.583313l0 0c0 5.9229126 -4.801483 10.724396 -10.724411 10.724396l0 0c-5.922928 0 -10.724411 -4.801483 -10.724411 -10.724396z" fill-rule="evenodd"/><path stroke="#000000" stroke-width="1.0" stroke-linejoin="round" stroke-linecap="butt" d="m148.34383 386.8504l0 0c0 -5.922943 4.801483 -10.724426 10.724411 -10.724426l0 0c2.8442993 0 5.5720825 1.1298828 7.583313 3.1411133c2.0112152 2.0112305 3.141098 4.7390137 3.141098 7.583313l0 0c0 5.9229126 -4.801483 10.724396 -10.724411 10.724396l0 0c-5.922928 0 -10.724411 -4.801483 -10.724411 -10.724396z" fill-rule="evenodd"/><path fill="#ffffff" d="m148.34383 426.8504l0 0c0 -5.922943 4.801483 -10.724426 10.724411 -10.724426l0 0c2.8442993 0 5.5720825 1.1298828 7.583313 3.1411133c2.0112152 2.0112305 3.141098 4.7390137 3.141098 7.583313l0 0c0 5.9229126 -4.801483 10.724396 -10.724411 10.724396l0 0c-5.922928 0 -10.724411 -4.801483 -10.724411 -10.724396z" fill-rule="evenodd"/><path stroke="#000000" stroke-width="1.0" stroke-linejoin="round" stroke-linecap="butt" d="m148.34383 426.8504l0 0c0 -5.922943 4.801483 -10.724426 10.724411 -10.724426l0 0c2.8442993 0 5.5720825 1.1298828 7.583313 3.1411133c2.0112152 2.0112305 3.141098 4.7390137 3.141098 7.583313l0 0c0 5.9229126 -4.801483 10.724396 -10.724411 10.724396l0 0c-5.922928 0 -10.724411 -4.801483 -10.724411 -10.724396z" fill-rule="evenodd"/><path fill="#ffffff" d="m148.34383 466.8504l0 0c0 -5.922943 4.801483 -10.724426 10.724411 -10.724426l0 0c2.8442993 0 5.5720825 1.1298828 7.583313 3.1411133c2.0112152 2.0112305 3.141098 4.7390137 3.141098 7.583313l0 0c0 5.9229126 -4.801483 10.724396 -10.724411 10.724396l0 0c-5.922928 0 -10.724411 -4.801483 -10.724411 -10.724396z" fill-rule="evenodd"/><path stroke="#000000" stroke-width="1.0" stroke-linejoin="round" stroke-linecap="butt" d="m148.34383 466.8504l0 0c0 -5.922943 4.801483 -10.724426 10.724411 -10.724426l0 0c2.8442993 0 5.5720825 1.1298828 7.583313 3.1411133c2.0112152 2.0112305 3.141098 4.7390137 3.141098 7.583313l0 0c0 5.9229126 -4.801483 10.724396 -10.724411 10.724396l0 0c-5.922928 0 -10.724411 -4.801483 -10.724411 -10.724396z" fill-rule="evenodd"/><path fill="#000000" fill-opacity="0.0" d="m80.96063 484.29922l0 -274.89764l45.385826 0l0 274.89764z" fill-rule="evenodd"/><path fill="#000000" d="m119.40063 410.8978l-21.9375 0l0 -15.875l2.578125 0l0 12.96875l6.71875 0l0 -12.140625l2.578125 0l0 12.140625l7.46875 0l0 -13.46875l2.59375 0l0 16.375zm0 -20.04123l-15.890625 0l0 -2.4375l2.25 0q-2.609375 -1.75 -2.609375 -5.046875q0 -1.4375 0.515625 -2.640625q0.515625 -1.21875 1.359375 -1.8125q0.828125 -0.59375 1.984375 -0.84375q0.75 -0.140625 2.609375 -0.140625l9.78125 0l0 2.6875l-9.671875 0q-1.640625 0 -2.453125 0.328125q-0.828125 0.3125 -1.3125 1.109375q-0.484375 0.796875 -0.484375 1.875q0 1.71875 1.09375 2.96875q1.09375 1.25 4.140625 1.25l8.6875 0l0 2.703125zm0 -27.36206l-2.0 0q2.359375 1.5 2.359375 4.4375q0 1.90625 -1.046875 3.5q-1.046875 1.59375 -2.921875 2.46875q-1.890625 0.875 -4.328125 0.875q-2.375 0 -4.3125 -0.796875q-1.9375 -0.796875 -2.96875 -2.375q-1.03125 -1.59375 -1.03125 -3.546875q0 -1.4375 0.609375 -2.5625q0.59375 -1.125 1.5625 -1.828125l-7.859375 0l0 -2.671875l21.9375 0l0 2.5zm-7.9375 8.515625q3.0625 0 4.578125 -1.28125q1.5 -1.296875 1.5 -3.046875q0 -1.765625 -1.4375 -3.0q-1.453125 -1.234375 -4.40625 -1.234375q-3.265625 0 -4.796875 1.265625q-1.53125 1.25 -1.53125 3.09375q0 1.78125 1.46875 3.0q1.46875 1.203125 4.625 1.203125zm7.9375 -22.363678l-2.6875 0l-14.0625 -11.25q-1.5 -1.1875 -2.609375 -2.265625l0 12.234375l-2.578125 0l0 -15.71875l2.578125 0l15.234375 12.328125l1.53125 1.328125l0 -14.015625l2.59375 0l0 17.359375zm-7.953125 -19.132324q-4.40625 0 -6.53125 -2.453125q-1.765625 -2.0625 -1.765625 -5.0q0 -3.28125 2.15625 -5.359375q2.140625 -2.078125 5.921875 -2.078125q3.0625 0 4.828125 0.921875q1.75 0.90625 2.734375 2.671875q0.96875 1.765625 0.96875 3.84375q0 3.328125 -2.140625 5.390625q-2.140625 2.0625 -6.171875 2.0625zm0 -2.765625q3.0625 0 4.578125 -1.328125q1.515625 -1.34375 1.515625 -3.359375q0 -2.015625 -1.515625 -3.34375q-1.53125 -1.328125 -4.65625 -1.328125q-2.953125 0 -4.46875 1.34375q-1.53125 1.328125 -1.53125 3.328125q0 2.015625 1.515625 3.359375q1.515625 1.328125 4.5625 1.328125zm7.953125 -15.283905l-15.890625 0l0 -2.4375l2.25 0q-2.609375 -1.75 -2.609375 -5.046875q0 -1.4375 0.515625 -2.640625q0.515625 -1.21875 1.359375 -1.8125q0.828125 -0.59375 1.984375 -0.84375q0.75 -0.140625 2.609375 -0.140625l9.78125 0l0 2.6875l-9.671875 0q-1.640625 0 -2.453125 0.328125q-0.828125 0.3125 -1.3125 1.109375q-0.484375 0.796875 -0.484375 1.875q0 1.71875 1.09375 2.96875q1.09375 1.25 4.140625 1.25l8.6875 0l0 2.703125zm-5.125 -27.940186l0.34375 -2.78125q2.453125 0.65625 3.796875 2.4375q1.34375 1.78125 1.34375 4.546875q0 3.5 -2.140625 5.546875q-2.15625 2.03125 -6.03125 2.03125q-4.015625 0 -6.21875 -2.0625q-2.21875 -2.0625 -2.21875 -5.359375q0 -3.1875 2.171875 -5.203125q2.15625 -2.03125 6.09375 -2.03125q0.25 0 0.71875 0.015625l0 11.859375q2.625 -0.15625 4.015625 -1.484375q1.390625 -1.328125 1.390625 -3.328125q0 -1.46875 -0.765625 -2.515625q-0.78125 -1.0625 -2.5 -1.671875zm-4.34375 8.84375l0 -8.875q-2.015625 0.1875 -3.015625 1.015625q-1.5625 1.296875 -1.5625 3.34375q0 1.859375 1.25 3.125q1.234375 1.265625 3.328125 1.390625z" fill-rule="nonzero"/><path fill="#000000" fill-opacity="0.0" d="m870.34644 209.40158l0 274.89764l-45.385803 0l0 -274.89764z" fill-rule="evenodd"/><path fill="#000000" d="m831.90643 282.803l21.9375 0l0 15.875l-2.578125 0l0 -12.96875l-6.71875 0l0 12.140625l-2.578125 0l0 -12.140625l-7.46875 0l0 13.46875l-2.59375 0l0 -16.375zm0 20.04123l15.890625 0l0 2.4375l-2.25 0q2.609375 1.75 2.609375 5.046875q0 1.4375 -0.515625 2.640625q-0.515625 1.21875 -1.359375 1.8125q-0.828125 0.59375 -1.984375 0.84375q-0.75 0.140625 -2.609375 0.140625l-9.78125 0l0 -2.6875l9.671875 0q1.640625 0 2.453125 -0.328125q0.828125 -0.3125 1.3125 -1.109375q0.484375 -0.796875 0.484375 -1.875q0 -1.71875 -1.09375 -2.96875q-1.09375 -1.25 -4.140625 -1.25l-8.6875 0l0 -2.703125zm0 27.36203l2.0 0q-2.359375 -1.5 -2.359375 -4.4375q0 -1.90625 1.046875 -3.5q1.046875 -1.59375 2.921875 -2.46875q1.890625 -0.875 4.328125 -0.875q2.375 0 4.3125 0.796875q1.9375 0.796875 2.96875 2.375q1.03125 1.59375 1.03125 3.546875q0 1.4375 -0.609375 2.5625q-0.59375 1.125 -1.5625 1.828125l7.859375 0l0 2.671875l-21.9375 0l0 -2.5zm7.9375 -8.515625q-3.0625 0 -4.578125 1.28125q-1.5 1.296875 -1.5 3.046875q0 1.765625 1.4375 3.0q1.453125 1.234375 4.40625 1.234375q3.265625 0 4.796875 -1.265625q1.53125 -1.25 1.53125 -3.09375q0 -1.78125 -1.46875 -3.0q-1.46875 -1.203125 -4.625 -1.203125zm-7.9375 22.363708l2.6875 0l14.0625 11.25q1.5 1.1875 2.609375 2.265625l0 -12.234375l2.578125 0l0 15.71875l-2.578125 0l-15.234375 -12.328125l-1.53125 -1.328125l0 14.015625l-2.59375 0l0 -17.359375zm7.953125 19.132324q4.40625 0 6.53125 2.453125q1.765625 2.0625 1.765625 5.0q0 3.28125 -2.15625 5.359375q-2.140625 2.078125 -5.921875 2.078125q-3.0625 0 -4.828125 -0.921875q-1.75 -0.90625 -2.734375 -2.671875q-0.96875 -1.765625 -0.96875 -3.84375q0 -3.328125 2.140625 -5.390625q2.140625 -2.0625 6.171875 -2.0625zm0 2.765625q-3.0625 0 -4.578125 1.328125q-1.515625 1.34375 -1.515625 3.359375q0 2.015625 1.515625 3.34375q1.53125 1.328125 4.65625 1.328125q2.953125 0 4.46875 -1.34375q1.53125 -1.328125 1.53125 -3.328125q0 -2.015625 -1.515625 -3.359375q-1.515625 -1.328125 -4.5625 -1.328125zm-7.953125 15.283905l15.890625 0l0 2.4375l-2.25 0q2.609375 1.75 2.609375 5.046875q0 1.4375 -0.515625 2.640625q-0.515625 1.21875 -1.359375 1.8125q-0.828125 0.59375 -1.984375 0.84375q-0.75 0.140625 -2.609375 0.140625l-9.78125 0l0 -2.6875l9.671875 0q1.640625 0 2.453125 -0.328125q0.828125 -0.3125 1.3125 -1.109375q0.484375 -0.796875 0.484375 -1.875q0 -1.71875 -1.09375 -2.96875q-1.09375 -1.25 -4.140625 -1.25l-8.6875 0l0 -2.703125zm5.125 27.940186l-0.34375 2.78125q-2.453125 -0.65625 -3.796875 -2.4375q-1.34375 -1.78125 -1.34375 -4.546875q0 -3.5 2.140625 -5.546875q2.15625 -2.03125 6.03125 -2.03125q4.015625 0 6.21875 2.0625q2.21875 2.0625 2.21875 5.359375q0 3.1875 -2.171875 5.203125q-2.15625 2.03125 -6.09375 2.03125q-0.25 0 -0.71875 -0.015625l0 -11.859375q-2.625 0.15625 -4.015625 1.484375q-1.390625 1.328125 -1.390625 3.328125q0 1.46875 0.765625 2.515625q0.78125 1.0625 2.5 1.671875zm4.34375 -8.84375l0 8.875q2.015625 -0.1875 3.015625 -1.015625q1.5625 -1.296875 1.5625 -3.34375q0 -1.859375 -1.25 -3.125q-1.234375 -1.265625 -3.328125 -1.390625z" fill-rule="nonzero"/><path fill="#000000" fill-opacity="0.0" d="m181.82939 134.95013l591.37006 0" fill-rule="evenodd"/><path stroke="#000000" stroke-width="2.0" stroke-linejoin="round" stroke-linecap="butt" d="m181.82939 134.95013l591.37006 0" fill-rule="evenodd"/><path fill="#000000" fill-opacity="0.0" d="m391.14435 94.59843l205.54333 0l0 31.527557l-205.54333 0z" fill-rule="evenodd"/><path fill="#000000" d="m461.43533 114.28405q-1.015625 -0.375 -1.515625 -1.0625q-0.484375 -0.703125 -0.484375 -1.671875q0 -1.453125 1.046875 -2.4375q1.046875 -1.0 2.78125 -1.0q1.75 0 2.8125 1.015625q1.078125 1.015625 1.078125 2.46875q0 0.9375 -0.5 1.625q-0.484375 0.6875 -1.46875 1.0625q1.21875 0.390625 1.859375 1.28125q0.65625 0.890625 0.65625 2.140625q0 1.703125 -1.21875 2.875q-1.21875 1.171875 -3.1875 1.171875q-1.984375 0 -3.203125 -1.171875q-1.203125 -1.171875 -1.203125 -2.921875q0 -1.3125 0.65625 -2.1875q0.671875 -0.875 1.890625 -1.1875zm-0.328125 -2.78125q0 0.9375 0.609375 1.546875q0.609375 0.59375 1.59375 0.59375q0.9375 0 1.546875 -0.59375q0.609375 -0.59375 0.609375 -1.453125q0 -0.90625 -0.625 -1.515625q-0.625 -0.625 -1.5625 -0.625q-0.9375 0 -1.5625 0.609375q-0.609375 0.59375 -0.609375 1.4375zm-0.53125 6.15625q0 0.703125 0.328125 1.359375q0.34375 0.65625 1.0 1.015625q0.65625 0.359375 1.40625 0.359375q1.171875 0 1.9375 -0.75q0.765625 -0.75 0.765625 -1.921875q0 -1.1875 -0.796875 -1.953125q-0.78125 -0.78125 -1.953125 -0.78125q-1.15625 0 -1.921875 0.765625q-0.765625 0.765625 -0.765625 1.90625zm8.719482 -2.734375q0 -2.359375 0.484375 -3.796875q0.484375 -1.453125 1.4375 -2.234375q0.96875 -0.78125 2.421875 -0.78125q1.078125 0 1.890625 0.4375q0.8125 0.421875 1.328125 1.25q0.53125 0.8125 0.828125 1.984375q0.3125 1.15625 0.3125 3.140625q0 2.359375 -0.484375 3.8125q-0.484375 1.4375 -1.453125 2.234375q-0.953125 0.78125 -2.421875 0.78125q-1.921875 0 -3.03125 -1.390625q-1.3125 -1.671875 -1.3125 -5.4375zm1.671875 0q0 3.296875 0.765625 4.390625q0.78125 1.078125 1.90625 1.078125q1.140625 0 1.90625 -1.09375q0.765625 -1.09375 0.765625 -4.375q0 -3.296875 -0.765625 -4.375q-0.765625 -1.078125 -1.921875 -1.078125q-1.125 0 -1.796875 0.953125q-0.859375 1.21875 -0.859375 4.5zm14.262146 10.3125l-0.1875 -1.53125q0.546875 0.140625 0.9375 0.140625q0.546875 0 0.875 -0.1875q0.328125 -0.171875 0.546875 -0.5q0.15625 -0.25 0.5 -1.21875q0.046875 -0.140625 0.140625 -0.40625l-3.671875 -9.6875l1.765625 0l2.015625 5.59375q0.390625 1.078125 0.703125 2.25q0.28125 -1.125 0.671875 -2.203125l2.078125 -5.640625l1.640625 0l-3.6875 9.828125q-0.59375 1.609375 -0.921875 2.203125q-0.4375 0.8125 -1.0 1.1875q-0.5625 0.375 -1.34375 0.375q-0.484375 0 -1.0625 -0.203125zm15.71875 -4.90625q-0.921875 0.765625 -1.765625 1.09375q-0.828125 0.3125 -1.796875 0.3125q-1.59375 0 -2.453125 -0.78125q-0.859375 -0.78125 -0.859375 -1.984375q0 -0.71875 0.328125 -1.296875q0.328125 -0.59375 0.84375 -0.9375q0.53125 -0.359375 1.1875 -0.546875q0.46875 -0.125 1.453125 -0.25q1.984375 -0.234375 2.921875 -0.5625q0.015625 -0.34375 0.015625 -0.421875q0 -1.0 -0.46875 -1.421875q-0.625 -0.546875 -1.875 -0.546875q-1.15625 0 -1.703125 0.40625q-0.546875 0.40625 -0.8125 1.421875l-1.609375 -0.21875q0.21875 -1.015625 0.71875 -1.640625q0.5 -0.640625 1.453125 -0.984375q0.953125 -0.34375 2.1875 -0.34375q1.25 0 2.015625 0.296875q0.78125 0.28125 1.140625 0.734375q0.375 0.4375 0.515625 1.109375q0.078125 0.421875 0.078125 1.515625l0 2.1875q0 2.28125 0.109375 2.890625q0.109375 0.59375 0.40625 1.15625l-1.703125 0q-0.265625 -0.515625 -0.328125 -1.1875zm-0.140625 -3.671875q-0.890625 0.375 -2.671875 0.625q-1.015625 0.140625 -1.4375 0.328125q-0.421875 0.1875 -0.65625 0.53125q-0.21875 0.34375 -0.21875 0.78125q0 0.65625 0.5 1.09375q0.5 0.4375 1.453125 0.4375q0.9375 0 1.671875 -0.40625q0.75 -0.421875 1.09375 -1.140625q0.265625 -0.5625 0.265625 -1.640625l0 -0.609375zm4.188202 4.859375l0 -9.671875l1.46875 0l0 1.46875q0.5625 -1.03125 1.03125 -1.359375q0.484375 -0.328125 1.0625 -0.328125q0.828125 0 1.6875 0.53125l-0.5625 1.515625q-0.609375 -0.359375 -1.203125 -0.359375q-0.546875 0 -0.96875 0.328125q-0.421875 0.328125 -0.609375 0.890625q-0.28125 0.875 -0.28125 1.921875l0 5.0625l-1.625 0zm12.4939575 0l0 -1.21875q-0.90625 1.4375 -2.703125 1.4375q-1.15625 0 -2.125 -0.640625q-0.9687805 -0.640625 -1.5000305 -1.78125q-0.53125 -1.140625 -0.53125 -2.625q0 -1.453125 0.484375 -2.625q0.484375 -1.1875 1.4375305 -1.8125q0.96875 -0.625 2.171875 -0.625q0.875 0 1.546875 0.375q0.6875 0.359375 1.109375 0.953125l0 -4.796875l1.640625 0l0 13.359375l-1.53125 0zm-5.171875 -4.828125q0 1.859375 0.78125 2.78125q0.78125 0.921875 1.84375 0.921875q1.078125 0 1.828125 -0.875q0.75 -0.890625 0.75 -2.6875q0 -1.984375 -0.765625 -2.90625q-0.765625 -0.9375 -1.890625 -0.9375q-1.078125 0 -1.8125 0.890625q-0.734375 0.890625 -0.734375 2.8125zm8.625671 1.9375l1.625 -0.25q0.125 0.96875 0.75 1.5q0.625 0.515625 1.75 0.515625q1.125 0 1.671875 -0.453125q0.546875 -0.46875 0.546875 -1.09375q0 -0.546875 -0.484375 -0.875q-0.328125 -0.21875 -1.671875 -0.546875q-1.8125 -0.46875 -2.515625 -0.796875q-0.6875 -0.328125 -1.046875 -0.90625q-0.359375 -0.59375 -0.359375 -1.3125q0 -0.640625 0.296875 -1.1875q0.296875 -0.5625 0.8125 -0.921875q0.375 -0.28125 1.03125 -0.46875q0.671875 -0.203125 1.421875 -0.203125q1.140625 0 2.0 0.328125q0.859375 0.328125 1.265625 0.890625q0.421875 0.5625 0.578125 1.5l-1.609375 0.21875q-0.109375 -0.75 -0.640625 -1.171875q-0.515625 -0.421875 -1.46875 -0.421875q-1.140625 0 -1.625 0.375q-0.46875 0.375 -0.46875 0.875q0 0.3125 0.1875 0.578125q0.203125 0.265625 0.640625 0.4375q0.234375 0.09375 1.4375 0.421875q1.75 0.453125 2.4375 0.75q0.6875 0.296875 1.078125 0.859375q0.390625 0.5625 0.390625 1.40625q0 0.828125 -0.484375 1.546875q-0.46875 0.71875 -1.375 1.125q-0.90625 0.390625 -2.046875 0.390625q-1.875 0 -2.875 -0.78125q-0.984375 -0.78125 -1.25 -2.328125z" fill-rule="nonzero"/><path fill="#000000" fill-opacity="0.0" d="m774.4724 183.3412l120.566956 -1.2598419" fill-rule="evenodd"/><path stroke="#000000" stroke-width="2.0" stroke-linejoin="round" stroke-linecap="butt" d="m774.4724 183.3412l120.566956 -1.2598419" fill-rule="evenodd"/><path fill="#000000" fill-opacity="0.0" d="m774.48553 142.75328l120.566956 0l0 31.527557l-120.566956 0z" fill-rule="evenodd"/><path fill="#000000" d="m808.3821 168.09515l0 1.578125l-8.828125 0q-0.015625 -0.59375 0.1875 -1.140625q0.34375 -0.90625 1.078125 -1.78125q0.75 -0.875 2.15625 -2.015625q2.171875 -1.78125 2.9375 -2.828125q0.765625 -1.046875 0.765625 -1.96875q0 -0.984375 -0.703125 -1.640625q-0.6875 -0.671875 -1.8125 -0.671875q-1.1875 0 -1.90625 0.71875q-0.703125 0.703125 -0.703125 1.953125l-1.6875 -0.171875q0.171875 -1.890625 1.296875 -2.875q1.140625 -0.984375 3.03125 -0.984375q1.921875 0 3.046875 1.0625q1.125 1.0625 1.125 2.640625q0 0.796875 -0.328125 1.578125q-0.328125 0.78125 -1.09375 1.640625q-0.75 0.84375 -2.53125 2.34375q-1.46875 1.234375 -1.890625 1.6875q-0.421875 0.4375 -0.6875 0.875l6.546875 0zm1.7663574 -5.015625q0 -2.359375 0.484375 -3.796875q0.484375 -1.453125 1.4375 -2.234375q0.96875 -0.78125 2.421875 -0.78125q1.078125 0 1.890625 0.4375q0.8125 0.421875 1.328125 1.25q0.53125 0.8125 0.828125 1.984375q0.3125 1.15625 0.3125 3.140625q0 2.359375 -0.484375 3.8125q-0.484375 1.4375 -1.453125 2.234375q-0.953125 0.78125 -2.421875 0.78125q-1.921875 0 -3.03125 -1.390625q-1.3125 -1.671875 -1.3125 -5.4375zm1.671875 0q0 3.296875 0.765625 4.390625q0.78125 1.078125 1.90625 1.078125q1.140625 0 1.90625 -1.09375q0.765625 -1.09375 0.765625 -4.375q0 -3.296875 -0.765625 -4.375q-0.765625 -1.078125 -1.921875 -1.078125q-1.125 0 -1.796875 0.953125q-0.859375 1.21875 -0.859375 4.5zm14.262146 10.3125l-0.1875 -1.53125q0.546875 0.140625 0.9375 0.140625q0.546875 0 0.875 -0.1875q0.328125 -0.171875 0.546875 -0.5q0.15625 -0.25 0.5 -1.21875q0.046875 -0.140625 0.140625 -0.40625l-3.671875 -9.6875l1.765625 0l2.015625 5.59375q0.390625 1.078125 0.703125 2.25q0.28125 -1.125 0.671875 -2.203125l2.078125 -5.640625l1.640625 0l-3.6875 9.828125q-0.59375 1.609375 -0.921875 2.203125q-0.4375 0.8125 -1.0 1.1875q-0.5625 0.375 -1.34375 0.375q-0.484375 0 -1.0625 -0.203125zm15.71875 -4.90625q-0.921875 0.765625 -1.765625 1.09375q-0.828125 0.3125 -1.796875 0.3125q-1.59375 0 -2.453125 -0.78125q-0.859375 -0.78125 -0.859375 -1.984375q0 -0.71875 0.328125 -1.296875q0.328125 -0.59375 0.84375 -0.9375q0.53125 -0.359375 1.1875 -0.546875q0.46875 -0.125 1.453125 -0.25q1.984375 -0.234375 2.921875 -0.5625q0.015625 -0.34375 0.015625 -0.421875q0 -1.0 -0.46875 -1.421875q-0.625 -0.546875 -1.875 -0.546875q-1.15625 0 -1.703125 0.40625q-0.546875 0.40625 -0.8125 1.421875l-1.609375 -0.21875q0.21875 -1.015625 0.71875 -1.640625q0.5 -0.640625 1.453125 -0.984375q0.953125 -0.34375 2.1875 -0.34375q1.25 0 2.015625 0.296875q0.78125 0.28125 1.140625 0.734375q0.375 0.4375 0.515625 1.109375q0.078125 0.421875 0.078125 1.515625l0 2.1875q0 2.28125 0.109375 2.890625q0.109375 0.59375 0.40625 1.15625l-1.703125 0q-0.265625 -0.515625 -0.328125 -1.1875zm-0.140625 -3.671875q-0.890625 0.375 -2.671875 0.625q-1.015625 0.140625 -1.4375 0.328125q-0.421875 0.1875 -0.65625 0.53125q-0.21875 0.34375 -0.21875 0.78125q0 0.65625 0.5 1.09375q0.5 0.4375 1.453125 0.4375q0.9375 0 1.671875 -0.40625q0.75 -0.421875 1.09375 -1.140625q0.265625 -0.5625 0.265625 -1.640625l0 -0.609375zm4.1882324 4.859375l0 -9.671875l1.46875 0l0 1.46875q0.5625 -1.03125 1.03125 -1.359375q0.484375 -0.328125 1.0625 -0.328125q0.828125 0 1.6875 0.53125l-0.5625 1.515625q-0.609375 -0.359375 -1.203125 -0.359375q-0.546875 0 -0.96875 0.328125q-0.421875 0.328125 -0.609375 0.890625q-0.28125 0.875 -0.28125 1.921875l0 5.0625l-1.625 0zm12.4938965 0l0 -1.21875q-0.90625 1.4375 -2.703125 1.4375q-1.15625 0 -2.125 -0.640625q-0.96875 -0.640625 -1.5 -1.78125q-0.53125 -1.140625 -0.53125 -2.625q0 -1.453125 0.484375 -2.625q0.484375 -1.1875 1.4375 -1.8125q0.96875 -0.625 2.171875 -0.625q0.875 0 1.546875 0.375q0.6875 0.359375 1.109375 0.953125l0 -4.796875l1.640625 0l0 13.359375l-1.53125 0zm-5.171875 -4.828125q0 1.859375 0.78125 2.78125q0.78125 0.921875 1.84375 0.921875q1.078125 0 1.828125 -0.875q0.75 -0.890625 0.75 -2.6875q0 -1.984375 -0.765625 -2.90625q-0.765625 -0.9375 -1.890625 -0.9375q-1.078125 0 -1.8125 0.890625q-0.734375 0.890625 -0.734375 2.8125zm8.625732 1.9375l1.625 -0.25q0.125 0.96875 0.75 1.5q0.625 0.515625 1.75 0.515625q1.125 0 1.671875 -0.453125q0.546875 -0.46875 0.546875 -1.09375q0 -0.546875 -0.484375 -0.875q-0.328125 -0.21875 -1.671875 -0.546875q-1.8125 -0.46875 -2.515625 -0.796875q-0.6875 -0.328125 -1.046875 -0.90625q-0.359375 -0.59375 -0.359375 -1.3125q0 -0.640625 0.296875 -1.1875q0.296875 -0.5625 0.8125 -0.921875q0.375 -0.28125 1.03125 -0.46875q0.671875 -0.203125 1.421875 -0.203125q1.140625 0 2.0 0.328125q0.859375 0.328125 1.265625 0.890625q0.421875 0.5625 0.578125 1.5l-1.609375 0.21875q-0.109375 -0.75 -0.640625 -1.171875q-0.515625 -0.421875 -1.46875 -0.421875q-1.140625 0 -1.625 0.375q-0.46875 0.375 -0.46875 0.875q0 0.3125 0.1875 0.578125q0.203125 0.265625 0.640625 0.4375q0.234375 0.09375 1.4375 0.421875q1.75 0.453125 2.4375 0.75q0.6875 0.296875 1.078125 0.859375q0.390625 0.5625 0.390625 1.40625q0 0.828125 -0.484375 1.546875q-0.46875 0.71875 -1.375 1.125q-0.90625 0.390625 -2.046875 0.390625q-1.875 0 -2.875 -0.78125q-0.984375 -0.78125 -1.25 -2.328125z" fill-rule="nonzero"/><path fill="#000000" fill-opacity="0.0" d="m62.03937 554.3779l836.0 -3.77948" fill-rule="evenodd"/><path stroke="#000000" stroke-width="2.0" stroke-linejoin="round" stroke-linecap="butt" d="m62.03937 554.3779l836.0 -3.77948" fill-rule="evenodd"/><path fill="#000000" fill-opacity="0.0" d="m391.14435 550.59845l205.54333 0l0 31.527527l-205.54333 0z" fill-rule="evenodd"/><path fill="#000000" d="m459.90372 577.51843l-1.640625 0l0 -10.453125q-0.59375 0.5625 -1.5625 1.140625q-0.953125 0.5625 -1.71875 0.84375l0 -1.59375q1.375 -0.640625 2.40625 -1.5625q1.03125 -0.921875 1.453125 -1.78125l1.0625 0l0 13.40625zm12.813232 -1.578125l0 1.578125l-8.828125 0q-0.015625 -0.59375 0.1875 -1.140625q0.34375 -0.90625 1.078125 -1.78125q0.75 -0.875 2.15625 -2.015625q2.171875 -1.78125 2.9375 -2.828125q0.765625 -1.046875 0.765625 -1.96875q0 -0.984375 -0.703125 -1.640625q-0.6875 -0.671875 -1.8125 -0.671875q-1.1875 0 -1.90625 0.71875q-0.703125 0.703125 -0.703125 1.953125l-1.6875 -0.171875q0.171875 -1.890625 1.296875 -2.875q1.140625 -0.984375 3.03125 -0.984375q1.921875 0 3.046875 1.0625q1.125 1.0625 1.125 2.640625q0 0.796875 -0.328125 1.578125q-0.328125 0.78125 -1.09375 1.640625q-0.75 0.84375 -2.53125 2.34375q-1.46875 1.234375 -1.890625 1.6875q-0.421875 0.4375 -0.6875 0.875l6.546875 0zm1.7663269 -5.015625q0 -2.359375 0.484375 -3.796875q0.484375 -1.453125 1.4375 -2.234375q0.96875 -0.78125 2.421875 -0.78125q1.078125 0 1.890625 0.4375q0.8125 0.421875 1.328125 1.25q0.53125 0.8125 0.828125 1.984375q0.3125 1.15625 0.3125 3.140625q0 2.359375 -0.484375 3.8125q-0.484375 1.4375 -1.453125 2.234375q-0.953125 0.78125 -2.421875 0.78125q-1.921875 0 -3.03125 -1.390625q-1.3125 -1.671875 -1.3125 -5.4375zm1.671875 0q0 3.296875 0.765625 4.390625q0.78125 1.078125 1.90625 1.078125q1.140625 0 1.90625 -1.09375q0.765625 -1.09375 0.765625 -4.375q0 -3.296875 -0.765625 -4.375q-0.765625 -1.078125 -1.921875 -1.078125q-1.125 0 -1.796875 0.953125q-0.859375 1.21875 -0.859375 4.5zm14.262146 10.3125l-0.1875 -1.53125q0.546875 0.140625 0.9375 0.140625q0.546875 0 0.875 -0.1875q0.328125 -0.171875 0.546875 -0.5q0.15625 -0.25 0.5 -1.21875q0.046875 -0.140625 0.140625 -0.40625l-3.671875 -9.6875l1.765625 0l2.015625 5.59375q0.390625 1.078125 0.703125 2.25q0.28125 -1.125 0.671875 -2.203125l2.078125 -5.640625l1.640625 0l-3.6875 9.828125q-0.59375 1.609375 -0.921875 2.203125q-0.4375 0.8125 -1.0 1.1875q-0.5625 0.375 -1.34375 0.375q-0.484375 0 -1.0625 -0.203125zm15.71875 -4.90625q-0.921875 0.765625 -1.765625 1.09375q-0.828125 0.3125 -1.796875 0.3125q-1.59375 0 -2.453125 -0.78125q-0.859375 -0.78125 -0.859375 -1.984375q0 -0.71875 0.328125 -1.296875q0.328125 -0.59375 0.84375 -0.9375q0.53125 -0.359375 1.1875 -0.546875q0.46875 -0.125 1.453125 -0.25q1.984375 -0.234375 2.921875 -0.5625q0.015625 -0.34375 0.015625 -0.421875q0 -1.0 -0.46875 -1.421875q-0.625 -0.546875 -1.875 -0.546875q-1.15625 0 -1.703125 0.40625q-0.546875 0.40625 -0.8125 1.421875l-1.609375 -0.21875q0.21875 -1.015625 0.71875 -1.640625q0.5 -0.640625 1.453125 -0.984375q0.953125 -0.34375 2.1875 -0.34375q1.25 0 2.015625 0.296875q0.78125 0.28125 1.140625 0.734375q0.375 0.4375 0.515625 1.109375q0.078125 0.421875 0.078125 1.515625l0 2.1875q0 2.28125 0.109375 2.890625q0.109375 0.59375 0.40625 1.15625l-1.703125 0q-0.265625 -0.515625 -0.328125 -1.1875zm-0.140625 -3.671875q-0.890625 0.375 -2.671875 0.625q-1.015625 0.140625 -1.4375 0.328125q-0.421875 0.1875 -0.65625 0.53125q-0.21875 0.34375 -0.21875 0.78125q0 0.65625 0.5 1.09375q0.5 0.4375 1.453125 0.4375q0.9375 0 1.671875 -0.40625q0.75 -0.421875 1.09375 -1.140625q0.265625 -0.5625 0.265625 -1.640625l0 -0.609375zm4.1882324 4.859375l0 -9.671875l1.46875 0l0 1.46875q0.5625 -1.03125 1.03125 -1.359375q0.484375 -0.328125 1.0625 -0.328125q0.828125 0 1.6875 0.53125l-0.5625 1.515625q-0.609375 -0.359375 -1.203125 -0.359375q-0.546875 0 -0.96875 0.328125q-0.421875 0.328125 -0.609375 0.890625q-0.28125 0.875 -0.28125 1.921875l0 5.0625l-1.625 0zm12.4938965 0l0 -1.21875q-0.90625 1.4375 -2.703125 1.4375q-1.15625 0 -2.125 -0.640625q-0.96875 -0.640625 -1.5 -1.78125q-0.53125 -1.140625 -0.53125 -2.625q0 -1.453125 0.484375 -2.625q0.484375 -1.1875 1.4375 -1.8125q0.96875 -0.625 2.171875 -0.625q0.875 0 1.546875 0.375q0.6875 0.359375 1.109375 0.953125l0 -4.796875l1.640625 0l0 13.359375l-1.53125 0zm-5.171875 -4.828125q0 1.859375 0.78125 2.78125q0.78125 0.921875 1.84375 0.921875q1.078125 0 1.828125 -0.875q0.75 -0.890625 0.75 -2.6875q0 -1.984375 -0.765625 -2.90625q-0.765625 -0.9375 -1.890625 -0.9375q-1.078125 0 -1.8125 0.890625q-0.734375 0.890625 -0.734375 2.8125zm8.625732 1.9375l1.625 -0.25q0.125 0.96875 0.75 1.5q0.625 0.515625 1.75 0.515625q1.125 0 1.671875 -0.453125q0.546875 -0.46875 0.546875 -1.09375q0 -0.546875 -0.484375 -0.875q-0.328125 -0.21875 -1.671875 -0.546875q-1.8125 -0.46875 -2.515625 -0.796875q-0.6875 -0.328125 -1.046875 -0.90625q-0.359375 -0.59375 -0.359375 -1.3125q0 -0.640625 0.296875 -1.1875q0.296875 -0.5625 0.8125 -0.921875q0.375 -0.28125 1.03125 -0.46875q0.671875 -0.203125 1.421875 -0.203125q1.140625 0 2.0 0.328125q0.859375 0.328125 1.265625 0.890625q0.421875 0.5625 0.578125 1.5l-1.609375 0.21875q-0.109375 -0.75 -0.640625 -1.171875q-0.515625 -0.421875 -1.46875 -0.421875q-1.140625 0 -1.625 0.375q-0.46875 0.375 -0.46875 0.875q0 0.3125 0.1875 0.578125q0.203125 0.265625 0.640625 0.4375q0.234375 0.09375 1.4375 0.421875q1.75 0.453125 2.4375 0.75q0.6875 0.296875 1.078125 0.859375q0.390625 0.5625 0.390625 1.40625q0 0.828125 -0.484375 1.546875q-0.46875 0.71875 -1.375 1.125q-0.90625 0.390625 -2.046875 0.390625q-1.875 0 -2.875 -0.78125q-0.984375 -0.78125 -1.25 -2.328125z" fill-rule="nonzero"/><path fill="#6d9eeb" d="m287.74802 601.9764l365.66928 0l0 83.212585l-365.66928 0z" fill-rule="evenodd"/><path stroke="#000000" stroke-width="1.0" stroke-linejoin="round" stroke-linecap="butt" d="m287.74802 601.9764l365.66928 0l0 83.212585l-365.66928 0z" fill-rule="evenodd"/><path fill="#ffffff" d="m340.34384 626.8504l0 0c0 -5.9229126 4.801483 -10.724426 10.724396 -10.724426l0 0c2.8442993 0 5.5720825 1.1298828 7.583313 3.1411133c2.0112 2.0112305 3.1411133 4.7390137 3.1411133 7.583313l0 0c0 5.9229126 -4.801483 10.724426 -10.724426 10.724426l0 0c-5.9229126 0 -10.724396 -4.8015137 -10.724396 -10.724426z" fill-rule="evenodd"/><path stroke="#000000" stroke-width="1.0" stroke-linejoin="round" stroke-linecap="butt" d="m340.34384 626.8504l0 0c0 -5.9229126 4.801483 -10.724426 10.724396 -10.724426l0 0c2.8442993 0 5.5720825 1.1298828 7.583313 3.1411133c2.0112 2.0112305 3.1411133 4.7390137 3.1411133 7.583313l0 0c0 5.9229126 -4.801483 10.724426 -10.724426 10.724426l0 0c-5.9229126 0 -10.724396 -4.8015137 -10.724396 -10.724426z" fill-rule="evenodd"/><path fill="#000000" fill-opacity="0.0" d="m313.79266 643.1522l100.88187 0l0 39.968506l-100.88187 0z" fill-rule="evenodd"/><path fill="#000000" d="m327.6364 670.0722l0 -11.78125l-4.40625 0l0 -1.578125l10.578125 0l0 1.578125l-4.40625 0l0 11.78125l-1.765625 0zm12.34259 -3.109375l1.6875 0.203125q-0.40625 1.484375 -1.484375 2.3125q-1.078125 0.8125 -2.765625 0.8125q-2.125 0 -3.375 -1.296875q-1.234375 -1.3125 -1.234375 -3.671875q0 -2.453125 1.25 -3.796875q1.265625 -1.34375 3.265625 -1.34375q1.9375 0 3.15625 1.328125q1.234375 1.3125 1.234375 3.703125q0 0.15625 0 0.4375l-7.21875 0q0.09375 1.59375 0.90625 2.453125q0.8125 0.84375 2.015625 0.84375q0.90625 0 1.546875 -0.46875q0.640625 -0.484375 1.015625 -1.515625zm-5.390625 -2.65625l5.40625 0q-0.109375 -1.21875 -0.625 -1.828125q-0.78125 -0.953125 -2.03125 -0.953125q-1.125 0 -1.90625 0.765625q-0.765625 0.75 -0.84375 2.015625zm15.453827 4.578125q-0.921875 0.765625 -1.765625 1.09375q-0.828125 0.3125 -1.796875 0.3125q-1.59375 0 -2.453125 -0.78125q-0.859375 -0.78125 -0.859375 -1.984375q0 -0.71875 0.328125 -1.296875q0.328125 -0.59375 0.84375 -0.9375q0.53125 -0.359375 1.1875 -0.546875q0.46875 -0.125 1.453125 -0.25q1.984375 -0.234375 2.921875 -0.5625q0.015625 -0.34375 0.015625 -0.421875q0 -1.0 -0.46875 -1.421875q-0.625 -0.546875 -1.875 -0.546875q-1.15625 0 -1.703125 0.40625q-0.546875 0.40625 -0.8125 1.421875l-1.609375 -0.21875q0.21875 -1.015625 0.71875 -1.640625q0.5 -0.640625 1.453125 -0.984375q0.953125 -0.34375 2.1875 -0.34375q1.25 0 2.015625 0.296875q0.78125 0.28125 1.140625 0.734375q0.375 0.4375 0.515625 1.109375q0.078125 0.421875 0.078125 1.515625l0 2.1875q0 2.28125 0.109375 2.890625q0.109375 0.59375 0.40625 1.15625l-1.703125 0q-0.265625 -0.515625 -0.328125 -1.1875zm-0.140625 -3.671875q-0.890625 0.375 -2.671875 0.625q-1.015625 0.140625 -1.4375 0.328125q-0.421875 0.1875 -0.65625 0.53125q-0.21875 0.34375 -0.21875 0.78125q0 0.65625 0.5 1.09375q0.5 0.4375 1.453125 0.4375q0.9375 0 1.671875 -0.40625q0.75 -0.421875 1.09375 -1.140625q0.265625 -0.5625 0.265625 -1.640625l0 -0.609375zm4.2038574 4.859375l0 -9.671875l1.46875 0l0 1.359375q0.453125 -0.71875 1.203125 -1.140625q0.765625 -0.4375 1.71875 -0.4375q1.078125 0 1.765625 0.453125q0.6875 0.4375 0.96875 1.234375q1.15625 -1.6875 2.984375 -1.6875q1.453125 0 2.21875 0.796875q0.78125 0.796875 0.78125 2.453125l0 6.640625l-1.640625 0l0 -6.09375q0 -0.984375 -0.15625 -1.40625q-0.15625 -0.4375 -0.578125 -0.703125q-0.421875 -0.265625 -0.984375 -0.265625q-1.015625 0 -1.6875 0.6875q-0.671875 0.671875 -0.671875 2.15625l0 5.625l-1.640625 0l0 -6.28125q0 -1.09375 -0.40625 -1.640625q-0.40625 -0.546875 -1.3125 -0.546875q-0.6875 0 -1.28125 0.359375q-0.59375 0.359375 -0.859375 1.0625q-0.25 0.703125 -0.25 2.03125l0 5.015625l-1.640625 0zm18.428528 0l5.125 -13.359375l1.90625 0l5.46875 13.359375l-2.015625 0l-1.546875 -4.046875l-5.59375 0l-1.46875 4.046875l-1.875 0zm3.859375 -5.484375l4.53125 0l-1.40625 -3.703125q-0.625 -1.6875 -0.9375 -2.765625q-0.265625 1.28125 -0.71875 2.546875l-1.46875 3.921875z" fill-rule="nonzero"/><path fill="#000000" d="m575.23883 626.8504l0 0c0 -5.9229126 4.8015137 -10.724426 10.724426 -10.724426l0 0c2.8442993 0 5.5720825 1.1298828 7.583313 3.1411133c2.0112305 2.0112305 3.1411133 4.7390137 3.1411133 7.583313l0 0c0 5.9229126 -4.8015137 10.724426 -10.724426 10.724426l0 0c-5.9229126 0 -10.724426 -4.8015137 -10.724426 -10.724426z" fill-rule="evenodd"/><path stroke="#000000" stroke-width="1.0" stroke-linejoin="round" stroke-linecap="butt" d="m575.23883 626.8504l0 0c0 -5.9229126 4.8015137 -10.724426 10.724426 -10.724426l0 0c2.8442993 0 5.5720825 1.1298828 7.583313 3.1411133c2.0112305 2.0112305 3.1411133 4.7390137 3.1411133 7.583313l0 0c0 5.9229126 -4.8015137 10.724426 -10.724426 10.724426l0 0c-5.9229126 0 -10.724426 -4.8015137 -10.724426 -10.724426z" fill-rule="evenodd"/><path fill="#000000" fill-opacity="0.0" d="m545.79266 643.1522l100.8819 0l0 39.968506l-100.8819 0z" fill-rule="evenodd"/><path fill="#000000" d="m559.6364 670.0722l0 -11.78125l-4.40625 0l0 -1.578125l10.578125 0l0 1.578125l-4.40625 0l0 11.78125l-1.765625 0zm12.34259 -3.109375l1.6875 0.203125q-0.40625 1.484375 -1.484375 2.3125q-1.078125 0.8125 -2.765625 0.8125q-2.125 0 -3.375 -1.296875q-1.234375 -1.3125 -1.234375 -3.671875q0 -2.453125 1.25 -3.796875q1.265625 -1.34375 3.265625 -1.34375q1.9375 0 3.15625 1.328125q1.234375 1.3125 1.234375 3.703125q0 0.15625 0 0.4375l-7.21875 0q0.09375 1.59375 0.90625 2.453125q0.8125 0.84375 2.015625 0.84375q0.90625 0 1.546875 -0.46875q0.640625 -0.484375 1.015625 -1.515625zm-5.390625 -2.65625l5.40625 0q-0.109375 -1.21875 -0.625 -1.828125q-0.78125 -0.953125 -2.03125 -0.953125q-1.125 0 -1.90625 0.765625q-0.765625 0.75 -0.84375 2.015625zm15.453857 4.578125q-0.921875 0.765625 -1.765625 1.09375q-0.828125 0.3125 -1.796875 0.3125q-1.59375 0 -2.453125 -0.78125q-0.859375 -0.78125 -0.859375 -1.984375q0 -0.71875 0.328125 -1.296875q0.328125 -0.59375 0.84375 -0.9375q0.53125 -0.359375 1.1875 -0.546875q0.46875 -0.125 1.453125 -0.25q1.984375 -0.234375 2.921875 -0.5625q0.015625 -0.34375 0.015625 -0.421875q0 -1.0 -0.46875 -1.421875q-0.625 -0.546875 -1.875 -0.546875q-1.15625 0 -1.703125 0.40625q-0.546875 0.40625 -0.8125 1.421875l-1.609375 -0.21875q0.21875 -1.015625 0.71875 -1.640625q0.5 -0.640625 1.453125 -0.984375q0.953125 -0.34375 2.1875 -0.34375q1.25 0 2.015625 0.296875q0.78125 0.28125 1.140625 0.734375q0.375 0.4375 0.515625 1.109375q0.078125 0.421875 0.078125 1.515625l0 2.1875q0 2.28125 0.109375 2.890625q0.109375 0.59375 0.40625 1.15625l-1.703125 0q-0.265625 -0.515625 -0.328125 -1.1875zm-0.140625 -3.671875q-0.890625 0.375 -2.671875 0.625q-1.015625 0.140625 -1.4375 0.328125q-0.421875 0.1875 -0.65625 0.53125q-0.21875 0.34375 -0.21875 0.78125q0 0.65625 0.5 1.09375q0.5 0.4375 1.453125 0.4375q0.9375 0 1.671875 -0.40625q0.75 -0.421875 1.09375 -1.140625q0.265625 -0.5625 0.265625 -1.640625l0 -0.609375zm4.2037964 4.859375l0 -9.671875l1.46875 0l0 1.359375q0.453125 -0.71875 1.203125 -1.140625q0.765625 -0.4375 1.71875 -0.4375q1.078125 0 1.765625 0.453125q0.6875 0.4375 0.96875 1.234375q1.15625 -1.6875 2.984375 -1.6875q1.453125 0 2.21875 0.796875q0.78125 0.796875 0.78125 2.453125l0 6.640625l-1.640625 0l0 -6.09375q0 -0.984375 -0.15625 -1.40625q-0.15625 -0.4375 -0.578125 -0.703125q-0.421875 -0.265625 -0.984375 -0.265625q-1.015625 0 -1.6875 0.6875q-0.671875 0.671875 -0.671875 2.15625l0 5.625l-1.640625 0l0 -6.28125q0 -1.09375 -0.40625 -1.640625q-0.40625 -0.546875 -1.3125 -0.546875q-0.6875 0 -1.28125 0.359375q-0.59375 0.359375 -0.859375 1.0625q-0.25 0.703125 -0.25 2.03125l0 5.015625l-1.640625 0zm20.849121 0l0 -13.359375l5.015625 0q1.53125 0 2.453125 0.40625q0.921875 0.40625 1.4375 1.25q0.53125 0.84375 0.53125 1.765625q0 0.859375 -0.46875 1.625q-0.453125 0.75 -1.390625 1.203125q1.203125 0.359375 1.859375 1.21875q0.65625 0.859375 0.65625 2.015625q0 0.9375 -0.40625 1.75q-0.390625 0.796875 -0.984375 1.234375q-0.578125 0.4375 -1.453125 0.671875q-0.875 0.21875 -2.15625 0.21875l-5.09375 0zm1.78125 -7.75l2.875 0q1.1875 0 1.6875 -0.140625q0.671875 -0.203125 1.015625 -0.671875q0.34375 -0.46875 0.34375 -1.171875q0 -0.65625 -0.328125 -1.15625q-0.3125 -0.515625 -0.90625 -0.703125q-0.59375 -0.1875 -2.03125 -0.1875l-2.65625 0l0 4.03125zm0 6.171875l3.3125 0q0.859375 0 1.203125 -0.0625q0.609375 -0.109375 1.015625 -0.359375q0.421875 -0.265625 0.6875 -0.75q0.265625 -0.484375 0.265625 -1.125q0 -0.75 -0.390625 -1.296875q-0.375 -0.546875 -1.0625 -0.765625q-0.671875 -0.234375 -1.953125 -0.234375l-3.078125 0l0 4.59375z" fill-rule="nonzero"/></g></svg>