<?xml version="1.0" encoding="UTF-8" standalone="no"?>
<!-- Created with Inkscape (http://www.inkscape.org/) -->

<svg
   version="1.1"
   id="svg2069"
   width="1600"
   height="1600"
   viewBox="0 0 1600 1600"
   sodipodi:docname="car-vehicle-vector-pdv.svg"
   inkscape:version="1.2 (dc2aedaf03, 2022-05-15)"
   xmlns:inkscape="http://www.inkscape.org/namespaces/inkscape"
   xmlns:sodipodi="http://sodipodi.sourceforge.net/DTD/sodipodi-0.dtd"
   xmlns="http://www.w3.org/2000/svg"
   xmlns:svg="http://www.w3.org/2000/svg">
  <defs
     id="defs2073">
    <clipPath
       clipPathUnits="userSpaceOnUse"
       id="clipPath2085">
      <path
         d="M 0,1200 H 1200 V 0 H 0 Z"
         id="path2083" />
    </clipPath>
  </defs>
  <sodipodi:namedview
     id="namedview2071"
     pagecolor="#ffffff"
     bordercolor="#000000"
     borderopacity="0.25"
     inkscape:showpageshadow="2"
     inkscape:pageopacity="0.0"
     inkscape:pagecheckerboard="0"
     inkscape:deskcolor="#d1d1d1"
     showgrid="false"
     inkscape:zoom="0.523125"
     inkscape:cx="800"
     inkscape:cy="800.95579"
     inkscape:window-width="1920"
     inkscape:window-height="1017"
     inkscape:window-x="-8"
     inkscape:window-y="-8"
     inkscape:window-maximized="1"
     inkscape:current-layer="g2077">
    <inkscape:page
       x="0"
       y="0"
       id="page2075"
       width="1600"
       height="1600" />
  </sodipodi:namedview>
  <g
     id="g2077"
     inkscape:groupmode="layer"
     inkscape:label="Page 1"
     transform="matrix(1.3333333,0,0,-1.3333333,0,1600)">
    <g
       id="g2079">
      <g
         id="g2081"
         clip-path="url(#clipPath2085)">
        <g
           id="g2087"
           transform="translate(280.334,477.4629)">
          <path
             d="m 0,0 -29.015,-16.934 c 1.178,-2.012 2.069,-4.208 2.63,-6.534 l 32.66,7.855 C 4.956,-10.131 2.847,-4.876 0,0 m 7.88,-29.038 h -33.567 c 0,-0.055 0.009,-0.103 0.009,-0.157 0,-2.435 -0.369,-4.782 -1.033,-7.002 L 5.46,-45.803 c 1.605,5.373 2.42,10.964 2.42,16.608 z m -7.761,-29.145 -29.081,16.811 c -1.191,-2.06 -2.673,-3.925 -4.391,-5.549 l 23.067,-24.422 c 4.09,3.866 7.593,8.293 10.405,13.16 m -21.171,-21.195 -16.845,29.064 c -2.016,-1.168 -4.21,-2.051 -6.537,-2.606 l 7.738,-32.685 c 5.49,1.297 10.755,3.393 15.644,6.227 m -29.003,-7.791 -0.032,33.561 h -0.006 c -2.426,0 -4.763,0.364 -6.976,1.024 l -9.579,-32.182 c 5.357,-1.594 10.93,-2.403 16.555,-2.403 z m -28.972,7.733 16.777,29.095 c -2.062,1.192 -3.928,2.669 -5.552,4.388 l -24.399,-23.092 c 3.873,-4.089 8.302,-7.585 13.174,-10.391 m 7.828,38.023 c -1.171,2.014 -2.057,4.209 -2.617,6.536 l -32.673,-7.781 c 1.305,-5.486 3.408,-10.743 6.243,-15.63 z m -36.867,12.138 33.557,0.067 v 0.013 c 0,2.415 0.365,4.745 1.022,6.95 l -32.194,9.546 c -1.582,-5.342 -2.385,-10.891 -2.385,-16.496 z m 7.7,28.963 29.116,-16.749 c 1.185,2.061 2.666,3.932 4.384,5.56 L -89.99,12.866 C -94.075,8.991 -97.564,4.56 -100.366,-0.312 m 21.128,21.237 16.905,-29.028 c 2.014,1.174 4.21,2.063 6.534,2.623 l -7.818,32.669 c -5.485,-1.313 -10.741,-3.422 -15.621,-6.264 m 29.027,-25.71 c 0.039,0 0.077,0.007 0.118,0.007 2.404,0 4.725,-0.364 6.925,-1.017 l 9.512,32.203 c -5.322,1.574 -10.853,2.368 -16.437,2.368 h -0.118 z m -3.519,-15.386 c 1.45,0.589 2.15,2.232 1.573,3.693 -0.589,1.45 -2.243,2.153 -3.693,1.563 -1.452,-0.589 -2.153,-2.231 -1.563,-3.693 0.441,-1.1 1.509,-1.767 2.63,-1.767 0.348,0 0.7,0.068 1.053,0.204 m -4.974,-21.776 c 0.487,-0.329 1.032,-0.489 1.585,-0.489 0.907,0 1.802,0.431 2.345,1.247 0.874,1.291 0.534,3.059 -0.757,3.93 -1.305,0.875 -3.058,0.545 -3.933,-0.759 -0.882,-1.289 -0.542,-3.057 0.76,-3.929 m -1.068,13.775 c 0.17,1.564 -0.96,2.96 -2.514,3.117 -1.551,0.159 -2.945,-0.964 -3.114,-2.527 -0.159,-1.553 0.963,-2.945 2.526,-3.104 0.101,-0.011 0.203,-0.022 0.294,-0.022 1.44,0 2.663,1.087 2.823,2.536 z m 19.399,-1.019 c 0,-1.564 1.27,-2.833 2.833,-2.833 1.563,0 2.833,1.269 2.833,2.833 0,1.562 -1.27,2.835 -2.833,2.835 -1.563,0 -2.833,-1.273 -2.833,-2.835 m -1.326,-9.768 c -0.737,1.385 -2.457,1.905 -3.83,1.181 v -0.011 c -1.381,-0.727 -1.904,-2.449 -1.167,-3.83 0.5,-0.952 1.485,-1.496 2.505,-1.496 0.441,0 0.897,0.1 1.326,0.329 1.381,0.735 1.904,2.446 1.166,3.827 m 1.859,17.551 c 1.009,1.203 0.848,2.982 -0.352,3.988 -1.191,1.009 -2.978,0.863 -3.989,-0.338 -1.009,-1.2 -0.847,-2.98 0.34,-3.989 v -0.012 c 0.535,-0.44 1.18,-0.656 1.825,-0.656 0.807,0 1.609,0.34 2.176,1.007 m 18.576,42.515 -16.718,-29.131 c 2.064,-1.187 3.937,-2.664 5.565,-4.374 l 24.344,23.142 c -3.878,4.08 -8.316,7.568 -13.191,10.363 m 34.052,-50.302 c 0,-34.672 -28.209,-62.884 -62.881,-62.884 -34.673,0 -62.884,28.212 -62.884,62.884 0,34.674 28.212,62.883 62.884,62.883 34.672,0 62.881,-28.209 62.881,-62.883 m 719.218,0 c 0,35.923 -29.224,65.148 -65.149,65.148 -35.923,0 -65.149,-29.225 -65.149,-65.148 0,-35.924 29.226,-65.149 65.149,-65.149 35.925,0 65.149,29.225 65.149,65.149 m -696.61,10.411 c -0.702,7.135 -2.207,14.231 -4.685,21.005 -2.466,6.77 -5.771,13.26 -9.888,19.203 -2.005,3.012 -4.313,5.808 -6.666,8.557 -2.456,2.659 -4.977,5.27 -7.746,7.61 -5.444,4.793 -11.554,8.81 -18.026,12.101 -6.483,3.282 -13.431,5.61 -20.523,7.167 -7.115,1.506 -14.416,2.081 -21.677,1.819 -7.265,-0.29 -14.479,-1.588 -21.438,-3.664 -6.961,-2.097 -13.635,-5.126 -19.841,-8.888 -12.34,-7.64 -22.829,-18.302 -29.908,-30.931 -3.563,-6.289 -6.38,-13.002 -8.2,-19.982 -0.968,-3.475 -1.592,-7.028 -2.132,-10.581 -0.415,-3.57 -0.764,-7.154 -0.734,-10.741 -0.082,-14.34 3.445,-28.665 10.374,-41.046 -12.335,25.617 -10.681,56.811 3.736,80.575 3.537,5.971 7.907,11.41 12.757,16.338 4.886,4.897 10.408,9.145 16.321,12.706 5.961,3.479 12.278,6.373 18.901,8.314 6.616,1.933 13.46,3.136 20.357,3.374 6.89,0.273 13.819,-0.231 20.576,-1.629 6.741,-1.43 13.333,-3.644 19.533,-6.678 12.431,-6.017 23.331,-15.204 31.442,-26.456 8.145,-11.232 13.448,-24.553 15.256,-38.42 0.965,-6.926 1.045,-13.999 0.252,-20.989 -0.385,-3.497 -1.014,-6.969 -1.839,-10.401 -0.795,-3.438 -1.838,-6.823 -3.059,-10.15 5.858,12.929 8.104,27.503 6.857,41.787 m -20.34,-10.411 c 0,35.923 -29.226,65.148 -65.149,65.148 -35.923,0 -65.15,-29.225 -65.15,-65.148 0,-35.924 29.227,-65.149 65.15,-65.149 35.923,0 65.149,29.225 65.149,65.149 m 106.227,185.671 c 0.081,-5.461 0.889,-11.617 2.094,-12.821 0.822,-0.823 1.526,-1.709 2.211,-2.568 1.814,-2.282 3.381,-4.252 6.892,-5.013 l 1.231,-0.268 c 5.977,1.993 15.68,8.404 21.531,16.843 3.066,4.43 4.617,8.734 4.633,12.857 -0.315,0.874 -0.656,1.751 -1.065,2.632 -9.962,3.463 -26.093,-3.891 -37.527,-11.662 m 40.013,3.474 c -0.81,-2.846 -2.211,-5.73 -4.192,-8.594 -5.571,-8.031 -14.407,-14.689 -20.874,-17.655 l -5.228,-3.05 c 0.62,-0.196 1.43,-0.388 2.487,-0.547 10.145,1.19 20.929,7.258 23.665,10.809 3.238,4.208 5.334,11.28 4.142,19.037 m -59.009,-25.893 c 0,0 8.548,0.424 22.503,1.106 -1.089,1.02 -1.96,2.11 -2.751,3.107 -0.63,0.79 -1.225,1.542 -1.865,2.181 -0.997,0.997 -1.703,2.698 -2.207,4.67 -1.438,-1.015 -2.855,-2.013 -4.224,-2.981 -5.295,-3.754 -7.427,-5.299 -11.456,-8.083 m 799.027,-70.201 16.63,-11.057 -1.386,-50.363 -7.177,-8.31 c 0,0 -4.907,-10.953 -12.084,-16.615 -3.498,-1.682 -7.481,-3.252 -11.832,-4.722 -1.055,-0.003 -1.686,-0.003 -1.711,-0.003 l -10.166,-2.973 0.065,-0.56 c -43.709,-11.648 -108.542,-15.538 -108.542,-15.538 0,0 -11.152,3.168 -14.283,4.299 -6.168,-40.835 -41.414,-72.137 -83.971,-72.137 -36.77,0 -68.083,23.368 -79.897,56.063 v 0.069 L 28.539,-61.345 c -12.674,-30.963 -43.105,-52.778 -78.632,-52.778 -32.951,0 -61.521,18.765 -75.601,46.193 0,0 -5.779,-0.622 -13.698,-1.277 -1.16,-0.096 0.468,-2.663 -0.777,-2.758 -12.878,-0.994 -30.608,-0.915 -38.145,0.376 -5.527,0.948 -20.367,6.454 -35.792,12.702 l 68.65,-1.182 -74.252,3.477 c -19.616,8.099 -38.471,16.657 -38.672,17.863 -0.024,0.142 -0.018,0.298 0.011,0.458 l 110.269,1.051 -108.961,1.037 c 2.038,2.201 6.001,4.916 8.879,7.272 -0.324,2.913 -2.588,23.013 -3.229,28.704 h 10.418 l 11.329,-24.739 h 14.905 V 4.137 h -40.285 l -0.692,0.565 v 27.939 c 3.516,3.618 11.412,11.6 17.741,16.998 28.016,12.363 65.574,15.053 69.129,15.284 l 52.113,-25.854 -49.865,27.195 c 6.48,5.327 35.829,29.451 47.569,39.189 l 0.729,0.606 c 8.439,1.795 56.467,11.514 124.917,16.098 l 0.157,0.035 c 16.032,5.921 28.442,13.805 35.518,22.467 1.825,-0.546 3.329,-1.462 4.127,-2.863 1.239,0.831 2.491,1.656 3.752,2.487 7.117,0.844 25.978,3.338 33.409,6.819 1.01,0.474 3.381,1.808 6.817,3.804 l 10.472,-9.393 c -2.432,-1.717 -4.689,-3.3 -6.783,-4.746 -5.643,-3.156 -10.346,-7.621 -14.258,-12.938 l -0.17,-0.008 0.166,0.007 c -6.56,-8.916 -10.89,-20.234 -13.655,-31.87 L -127.137,82.503 65.79,94.404 c -5.056,-22.438 -4.43,-45.682 -2.856,-54.77 0.426,-2.472 1.022,-5.749 1.712,-9.543 3.414,-18.8 9.128,-50.269 8.197,-59.228 -0.343,-3.269 0.37,-6.177 2.112,-8.662 l -27.608,-1.885 27.974,1.413 c 0.138,-0.179 0.267,-0.363 0.415,-0.539 3.991,-4.652 12.072,-7.509 22.757,-8.04 0.939,-0.048 3.34,-0.068 7.007,-0.068 50.965,0 346.507,4.242 365.957,5.354 3.552,0.198 7.173,0.164 11.012,0.128 19.487,-0.195 41.59,-0.411 64.803,31.071 12.472,16.917 66.147,98.246 95.663,153.404 l 6.807,0.205 16.709,0.532 c -0.921,-0.49 -1.797,-1.063 -2.591,-1.739 -2.612,-2.209 -4.355,-5.37 -4.906,-8.713 -0.151,-0.838 -0.18,-1.686 -0.19,-2.529 l 0.05,-2.375 c 0.043,-1.587 0.055,-3.142 0.124,-4.758 0.112,-3.352 1.534,-6.585 3.756,-8.998 2.215,-2.441 5.297,-4.041 8.523,-4.433 1.625,-0.211 3.213,-0.083 4.788,-0.066 l 4.746,0.09 c 6.325,0.105 12.651,0.14 18.975,0.157 3.167,0 6.319,1.134 8.758,3.169 2.451,2.017 4.181,4.905 4.779,8.054 0.32,1.582 0.262,3.19 0.313,4.758 0.026,1.586 0.09,3.153 0.092,4.753 0.028,3.258 -1.222,6.5 -3.342,9.014 -2.017,2.425 -4.908,4.139 -8.054,4.758 l 42.474,1.357 94.996,3.269 -95.029,-2.16 -95.023,-2.397 -5.803,-0.158 c 11.196,21.086 18.687,38.124 18.687,45.878 0,6.483 -10.848,20.55 -83.494,41.896 -72.725,21.367 -264.741,15.801 -323.407,0.003 -40.551,-10.917 -86.565,-39.746 -121.891,-63.979 1.602,0.714 3.263,1.398 4.959,2.014 34.635,23.528 78.474,50.439 117.226,60.872 26.16,7.042 78.877,12.048 135.67,13.53 -0.493,-2.452 -0.974,-4.906 -1.449,-7.362 -59.968,-0.433 -102.688,-4.242 -131.913,-13.93 -31.587,-10.471 -67.874,-30.983 -99.184,-50.977 0.766,-0.209 1.517,-0.449 2.244,-0.756 l 0.776,-0.325 0.377,-0.749 c 5.449,-10.901 4.731,-24.386 -1.747,-32.796 -0.323,-0.422 -0.728,-0.855 -1.174,-1.297 15.32,0.744 32.604,1.572 50.415,2.417 -1.899,5.154 -3.942,10.247 -6.068,15.296 -2.146,5.042 -4.373,10.043 -6.837,14.911 l -0.388,0.761 0.697,0.535 4.324,3.321 c 1.463,1.078 2.856,2.266 4.391,3.243 l 4.523,3.058 2.266,1.528 2.341,1.403 c 3.136,1.847 6.233,3.777 9.5,5.394 l 4.841,2.535 c 1.615,0.838 3.292,1.549 4.939,2.332 13.239,6.079 27.073,10.857 41.206,14.344 l 5.3,1.314 5.346,1.111 5.343,1.11 5.388,0.887 5.388,0.866 c 1.795,0.272 3.606,0.454 5.412,0.685 3.612,0.437 7.218,0.915 10.846,1.158 7.241,0.701 14.515,0.974 21.778,1.11 3.633,-0.013 7.268,0.06 10.898,-0.021 l 10.888,-0.422 3.227,-0.123 -1.762,-2.592 c -0.625,-0.92 -1.382,-1.619 -2.125,-2.091 -0.744,-0.513 -1.481,-0.874 -2.206,-1.218 -1.447,-0.676 -2.865,-1.199 -4.218,-1.762 -2.702,-1.101 -5.294,-2.348 -6.92,-4.276 -0.182,-0.251 -0.401,-0.482 -0.563,-0.743 l -0.443,-0.809 c -0.194,-0.445 -0.322,-1.019 -0.378,-1.715 -0.127,-1.352 -0.1,-2.817 -0.009,-4.273 0.163,-2.928 0.54,-5.887 0.956,-8.833 0.814,-5.904 1.887,-11.791 3.002,-17.675 1.127,-5.881 2.306,-11.757 3.55,-17.624 -1.725,5.746 -3.324,11.528 -4.808,17.344 -1.48,5.819 -2.838,11.667 -3.989,17.587 -0.546,2.966 -1.056,5.941 -1.354,8.993 -0.157,1.528 -0.26,3.063 -0.182,4.703 0.034,0.793 0.15,1.721 0.515,2.66 l 0.588,1.188 c 0.22,0.383 0.496,0.724 0.744,1.084 1.071,1.381 2.416,2.433 3.784,3.297 1.382,0.845 2.801,1.516 4.193,2.146 0.928,0.414 1.831,0.809 2.712,1.206 l -5.242,0.065 c -3.59,0.016 -7.178,-0.126 -10.765,-0.178 -7.169,-0.262 -14.333,-0.695 -21.468,-1.393 -3.576,-0.261 -7.128,-0.754 -10.684,-1.207 -1.776,-0.239 -3.558,-0.429 -5.327,-0.706 l -5.303,-0.886 -5.303,-0.874 -5.268,-1.06 -5.269,-1.058 -5.219,-1.264 c -13.907,-3.407 -27.597,-7.763 -40.731,-13.468 -1.638,-0.721 -3.313,-1.369 -4.922,-2.146 l -4.832,-2.341 c -3.261,-1.493 -6.348,-3.302 -9.497,-5.01 l -2.362,-1.283 -2.287,-1.409 -4.577,-2.819 c -2.806,-1.762 -5.464,-3.745 -8.208,-5.616 2.067,-4.793 3.973,-9.638 5.676,-14.552 1.824,-5.192 3.478,-10.434 4.952,-15.728 59.411,2.82 124.727,5.804 142.726,6.19 l 1.707,6.535 21.096,80.822 13.793,0.191 c -1.189,-6.295 -2.339,-12.597 -3.475,-18.902 -1.887,-10.552 -3.606,-21.131 -5.309,-31.715 -1.694,-10.584 -3.326,-21.179 -4.789,-31.8 l -0.549,-3.982 -0.271,-1.972 -0.351,-1.976 -0.97,-5.423 -103.952,-3.114 -95.004,-3.034 -25.249,-0.866 -24.218,-0.833 -43.877,-1.508 c 3.657,4.814 8.05,8.952 13.351,11.91 l 0.045,0.029 c 3.985,2.754 8.54,5.981 13.812,9.719 2.629,1.859 5.398,3.822 8.272,5.851 -0.014,0.502 -0.02,0.964 -0.024,1.369 -3.101,-2.187 -6.081,-4.299 -8.901,-6.297 -2.132,-1.511 -4.141,-2.934 -6.046,-4.28 l -10.394,9.324 c 4.395,2.563 10.287,6.054 17.199,10.149 38.694,22.933 110.714,65.616 130.917,70.386 l 1.774,0.417 -1.696,0.662 c -1.636,0.636 -3.483,1.545 -5.334,2.554 144.255,38.446 333.482,13.106 374.492,-0.248 0,0 108.767,-34.937 179.014,-70.247 1.424,-0.142 2.911,-0.283 4.445,-0.425 l 15.671,-8.944 0.08,-0.046 60.707,-11.574 10.322,-8.516 c -8.176,1.237 -15.728,1.48 -22.563,1.128 -14.648,0.302 -32.412,-1.318 -52.204,-7.149 l -0.929,-0.272 0.695,-0.676 c 5.384,-5.236 17.341,-15.117 43.859,-33.201 l -0.047,-0.07 11.682,-7.767 -137.544,-48.975 c -7.321,6.145 -15.701,11.055 -24.643,14.507 -12.356,4.697 -25.803,6.39 -38.956,5.184 -13.153,-1.319 -26.009,-5.659 -37.2,-12.671 -11.155,-7.05 -20.752,-16.58 -27.584,-27.83 -6.962,-11.165 -11.067,-23.996 -12.232,-36.983 -1.042,-12.994 0.766,-26.203 5.63,-38.155 -0.975,3.07 -1.804,6.18 -2.42,9.332 -0.651,3.141 -1.132,6.311 -1.42,9.498 -0.579,6.368 -0.458,12.789 0.405,19.09 0.83,6.303 2.343,12.498 4.538,18.435 0.497,1.501 1.185,2.933 1.76,4.402 0.619,1.454 1.323,2.869 1.99,4.301 1.454,2.803 2.979,5.568 4.728,8.196 3.46,5.272 7.467,10.175 11.977,14.562 4.519,4.374 9.52,8.243 14.878,11.51 10.715,6.541 22.901,10.635 35.386,11.806 12.481,1.213 25.239,-0.355 37.02,-4.696 5.891,-2.16 11.545,-4.987 16.823,-8.407 1.328,-0.841 2.59,-1.784 3.888,-2.672 1.237,-0.975 2.512,-1.9 3.716,-2.91 1.196,-1.022 2.436,-1.999 3.568,-3.096 l 1.734,-1.608 1.659,-1.682 c 8.835,-9.008 15.568,-20.088 19.664,-32.116 4.116,-12.042 5.391,-25.07 3.974,-37.87 0.594,3.166 1.009,6.371 1.242,9.599 0.107,1.616 0.163,3.232 0.147,4.852 l 0.003,2.429 c -0.011,0.81 -0.074,1.618 -0.106,2.429 -0.32,6.477 -1.357,12.942 -3.139,19.225 -1.237,4.195 -2.804,8.304 -4.667,12.279 L 896.023,42.939 889.237,-4.159 765.125,-37.71 890.08,-5.447 l 0.461,0.117 0.075,0.482 z M 716.945,0.002 687.936,-16.934 c 1.175,-2.012 2.067,-4.205 2.629,-6.532 l 32.657,7.851 c -1.317,5.487 -3.43,10.739 -6.277,15.617 m 7.883,-29.04 h -33.564 c 0,-0.055 0.007,-0.103 0.007,-0.157 0,-2.435 -0.368,-4.782 -1.034,-7.002 l 32.172,-9.606 c 1.605,5.373 2.419,10.964 2.419,16.608 z m -7.761,-29.145 -29.079,16.811 c -1.192,-2.06 -2.674,-3.925 -4.391,-5.549 l 23.06,-24.422 c 4.095,3.865 7.598,8.291 10.41,13.16 m -21.171,-21.194 -16.844,29.064 c -2.012,-1.17 -4.209,-2.053 -6.535,-2.607 l 7.74,-32.687 c 5.487,1.299 10.749,3.395 15.639,6.23 m -29,-7.792 -0.033,33.561 h -0.006 c -2.424,0 -4.762,0.364 -6.973,1.024 l -9.58,-32.182 c 5.358,-1.594 10.926,-2.403 16.553,-2.403 z m -28.975,7.733 16.779,29.097 c -2.061,1.19 -3.928,2.67 -5.554,4.386 l -24.394,-23.094 c 3.87,-4.087 8.301,-7.583 13.169,-10.389 m 7.83,38.025 c -1.173,2.015 -2.058,4.208 -2.614,6.534 l -32.678,-7.78 c 1.306,-5.487 3.407,-10.746 6.244,-15.632 z m -36.867,12.136 33.559,0.067 v 0.013 c 0,2.415 0.364,4.746 1.02,6.953 l -32.194,9.538 c -1.584,-5.341 -2.385,-10.888 -2.385,-16.491 z m 7.701,28.961 29.115,-16.746 c 1.189,2.065 2.667,3.931 4.384,5.559 L 626.961,12.867 C 622.877,8.99 619.386,4.558 616.585,-0.314 m 21.128,21.239 16.905,-29.028 c 2.014,1.174 4.207,2.063 6.533,2.623 l -7.818,32.669 c -5.484,-1.315 -10.739,-3.422 -15.62,-6.264 m 28.563,7.845 0.463,-19.851 V 8.382 -4.785 c 0.039,0 0.077,0.007 0.118,0.007 2.407,0 4.728,-0.364 6.927,-1.017 l 9.507,32.205 c -5.321,1.572 -10.852,2.367 -16.434,2.367 z m -3.057,-48.941 c 1.451,0.59 2.156,2.232 1.564,3.68 -0.578,1.463 -2.232,2.154 -3.682,1.577 -1.451,-0.59 -2.153,-2.244 -1.563,-3.694 0.441,-1.1 1.506,-1.767 2.628,-1.767 0.355,0 0.704,0.068 1.053,0.204 m -4.973,-21.776 c 0.486,-0.329 1.03,-0.489 1.573,-0.489 0.919,0 1.804,0.431 2.356,1.247 0.876,1.291 0.535,3.059 -0.757,3.931 -1.304,0.875 -3.059,0.534 -3.932,-0.76 -0.884,-1.301 -0.543,-3.057 0.76,-3.929 m -1.065,13.775 c 0.17,1.564 -0.962,2.96 -2.516,3.117 -1.564,0.159 -2.958,-0.964 -3.115,-2.527 -0.157,-1.553 0.964,-2.945 2.527,-3.115 0.091,0 0.192,-0.012 0.294,-0.012 1.427,0 2.661,1.088 2.822,2.537 z m 19.397,-1.019 c 0,-1.565 1.268,-2.833 2.832,-2.833 1.564,0 2.833,1.268 2.833,2.833 0,1.562 -1.269,2.834 -2.833,2.834 -1.564,0 -2.832,-1.272 -2.832,-2.834 m -1.326,-9.767 c -0.735,1.384 -2.458,1.904 -3.828,1.18 v -0.011 c -1.382,-0.727 -1.903,-2.449 -1.167,-3.83 0.497,-0.952 1.483,-1.496 2.49,-1.496 0.454,0 0.907,0.1 1.338,0.329 1.371,0.735 1.903,2.446 1.167,3.828 m 1.858,17.55 c 0.996,1.203 0.851,2.982 -0.352,3.988 -1.189,1.009 -2.979,0.852 -3.987,-0.338 -1.009,-1.201 -0.86,-2.98 0.34,-3.988 0.532,-0.453 1.179,-0.669 1.824,-0.669 0.807,0 1.608,0.34 2.175,1.007 m 18.577,42.515 -16.719,-29.131 c 2.062,-1.183 3.933,-2.662 5.562,-4.372 l 24.347,23.138 c -3.877,4.08 -8.316,7.57 -13.19,10.365 m 34.053,-50.302 c 0,-34.673 -28.211,-62.883 -62.883,-62.883 -34.674,0 -62.883,28.21 -62.883,62.883 0,34.674 28.209,62.883 62.883,62.883 34.672,0 62.883,-28.209 62.883,-62.883 m 141.475,176.903 -0.083,0.015 -0.142,0.026 10.238,-8.444 c 3.761,-0.645 7.641,-1.49 11.641,-2.591 l -5.124,12.752 z m 29.293,-56.993 c -0.006,0.073 -0.015,0.158 -0.022,0.233 h -37.868 l 55.364,-36.812 0.088,3.156 c -10.763,6.516 -16.713,24.927 -17.562,33.423 M 471.392,-40.435 c 3.59,0.207 7.23,0.172 11.087,0.132 19.137,-0.176 40.826,-0.391 63.588,30.223 l -61.65,-4.21 -62.415,-4.021 -49.915,-3.069 c 0.08,-0.869 0.163,-1.741 0.247,-2.61 l 1.841,-18.407 c 50.994,0.826 90.512,1.582 97.217,1.962 m -99.994,19.012 -74.25,-4.564 -124.885,-7.149 -62.452,-3.393 -33.092,-1.671 c 3.823,-4.337 11.56,-7.007 21.83,-7.517 9.488,-0.469 168.06,1.582 275.605,3.32 l -2.441,18.34 c -0.114,0.877 -0.207,1.757 -0.315,2.634 m 451.814,153.046 11.85,-8.704 62.704,0.873 c -0.804,4.447 -1.902,8.131 -3.442,10.136 -33.913,9.986 -59.758,1.713 -71.112,-2.305 M 722.953,41.852 c 2.392,-2.074 4.671,-4.275 6.804,-6.614 5.703,-6.099 10.419,-13.072 14.05,-20.549 l 152.39,29.438 3.041,21.11 -38.57,25.647 z m 148.309,106.999 15.893,2.478 c 0.866,1.154 7.157,9.713 4.855,11.616 -7.38,-0.703 -63.164,2.525 -97.074,5.561 l 13.429,-7.665 z m -470.028,-0.487 173.227,4.548 -1.694,0.04 1.106,44.614 c -7.746,2.892 -15.73,5.216 -23.744,7.216 -0.256,0.061 -0.512,0.12 -0.765,0.182 l -5.945,-50.327 2.695,51.105 c -14.372,3.385 -28.98,5.767 -43.648,7.618 -16.046,1.956 -32.178,3.298 -48.341,4.082 -15.78,0.797 -31.621,1.117 -47.406,0.939 l -1.217,-16.658 -1.326,-17.82 -1.442,-17.814 c -0.461,-5.912 -0.974,-11.818 -1.5,-17.725 m 174.932,4.592 9.967,0.264 39.617,1.041 c 16.996,15.483 26.124,31.974 26.565,35.624 -1.652,2.372 -12.553,14.099 -74.424,32.432 L 577.3,198.558 c 6.45,-2.723 12.749,-5.84 18.658,-9.628 l 0.528,-0.338 -0.182,-0.574 c -1.833,-5.732 -3.492,-11.558 -5.171,-17.361 l -5,-17.437 c 1.339,5.898 2.716,11.786 4.162,17.66 1.392,5.669 2.767,11.33 4.309,16.984 -5.563,3.251 -11.382,6.013 -17.361,8.401 z m -173.241,80.238 -4.91,-84.915 3.214,0.085 c 0.193,5.927 0.399,11.854 0.657,17.776 l 0.725,17.859 0.837,17.852 0.865,17.846 0.055,1.122 1.147,0.051 c 16.271,0.686 32.513,0.468 48.761,-0.166 16.238,-0.728 32.468,-1.947 48.608,-4.044 16.137,-2.049 32.195,-4.957 47.958,-9.128 7.814,-2.142 15.546,-4.612 23.09,-7.597 l 0.572,22.922 1.7,-0.042 c -29.655,8.713 -84.581,14.028 -150.146,14.768 -12.477,0.143 -24.32,0.183 -35.562,0.102 0.39,2.454 0.778,4.904 1.167,7.358 11.462,0.3 23.09,0.46 34.697,0.46 59.636,0 118.79,-4.113 152.402,-13.985 74.623,-21.929 82.678,-35.845 82.678,-40.811 0,-7.61 -7.608,-24.71 -18.937,-45.916 l -182.847,-4.976 -83.961,-2.514 0.875,5.048 0.34,1.98 0.263,2.012 0.529,3.979 4.392,31.834 c 1.495,10.606 3.114,21.195 4.71,31.789 0.949,6.362 1.947,12.715 2.952,19.069 z M 622.717,125.857 c -9.776,4.857 -21.673,7.022 -32.668,7.022 -13.441,0 -25.533,-3.231 -30.77,-8.733 -0.44,-0.459 -0.35,-0.701 -0.298,-0.844 0.717,-1.93 7.042,-4.232 12.078,-5.269 -0.067,0.365 -0.038,0.7 0.03,0.996 0.938,3.89 11.402,5.609 17.776,5.779 4.302,0.115 14.179,-0.233 16.778,-5.625 7.809,1.123 15.653,4.233 17.074,6.674 m -247.376,9.403 84.38,2.293 181.82,5.446 c -29.903,-55.556 -84.127,-137.7 -95.18,-152.69 -0.094,-0.13 -0.187,-0.247 -0.284,-0.372 l -61.726,-3.117 -62.454,-3.393 -49.997,-2.863 c -0.432,4.825 -0.8,9.654 -1.236,14.476 -0.311,3.168 -0.528,6.343 -0.754,9.52 l -0.68,9.522 c -0.423,6.35 -0.695,12.707 -1.018,19.061 -0.444,12.713 -0.785,25.431 -0.39,38.13 0.234,6.345 0.539,12.692 1.226,18.987 0.165,1.573 0.311,3.152 0.553,4.711 0.235,1.563 0.397,3.141 0.705,4.681 0.275,1.552 0.536,3.106 0.894,4.627 0.154,0.771 0.347,1.526 0.553,2.274 0.184,0.739 0.432,1.513 0.658,2.141 l 0.09,0.245 v 0.19 l -0.016,4.655 161.543,12.122 -161.55,-9.088 -0.005,1.847 2.724,15.757 z m -494.975,-27.813 1.513,-0.189 c 9.58,2.017 57.195,11.508 124.557,16.026 15.559,5.755 27.644,13.349 34.634,21.681 -4.981,1.002 -11.622,-0.306 -13.931,-2.226 -10.383,-1.129 -205.075,-9.44 -254.173,-56.648 0,0 -0.579,-1.005 -1.546,-2.705 19.093,7.896 73.325,28.516 108.946,24.061 m 227.661,59.187 c 37.776,22.387 107.284,63.58 129.616,70.079 -1.596,0.717 -3.299,1.604 -4.971,2.543 -0.027,-0.008 -0.053,-0.012 -0.078,-0.02 0,0 -108.982,-47.17 -180.28,-93.541 8.216,1.045 24.261,3.386 30.764,6.433 2.278,1.068 11.786,6.704 24.949,14.506 M -240.264,0.926 l 11.327,-24.739 h 13.044 V 3.003 h -37.765 l 2.077,-1.701 c 0,0 0.014,-0.136 0.041,-0.376 z m 1.204,50.72 c 28.152,12.469 65.836,15.264 69.987,15.536 3.216,2.639 32.787,26.938 46.507,38.299 -37.007,3.271 -92.314,-18.743 -107.841,-25.313 -5.539,-9.812 -16.345,-29.342 -20.355,-39.309 3.583,3.525 7.767,7.501 11.426,10.613 z m 952.009,70.044 c 0.287,1.539 0.138,3.118 0.121,4.703 -0.043,1.578 -0.052,3.174 -0.121,4.736 -0.107,3.086 -1.424,6.052 -3.475,8.275 -2.042,2.242 -4.884,3.708 -7.843,4.06 -0.744,0.126 -1.465,0.096 -2.246,0.106 l -2.373,-0.052 -4.744,-0.09 c -6.326,-0.108 -12.651,-0.142 -18.978,-0.158 -2.901,0 -5.785,-1.033 -8.028,-2.899 -2.253,-1.851 -3.842,-4.503 -4.392,-7.387 -0.15,-0.721 -0.192,-1.454 -0.246,-2.189 l -0.052,-2.375 c -0.026,-1.571 -0.086,-3.179 -0.088,-4.721 -0.033,-2.993 1.109,-5.971 3.054,-8.29 1.941,-2.336 4.744,-3.97 7.785,-4.478 1.505,-0.27 3.101,-0.219 4.682,-0.268 l 4.746,-0.093 c 6.325,-0.103 12.651,-0.137 18.975,-0.158 3.167,0.028 6.296,1.191 8.704,3.236 2.413,2.039 4.013,4.964 4.519,8.042 M 360.87,117.043 c -9.777,4.858 -21.673,7.022 -32.668,7.022 -13.44,0 -25.536,-3.232 -30.772,-8.731 -0.437,-0.462 -0.349,-0.702 -0.295,-0.845 0.712,-1.929 7.037,-4.23 12.075,-5.267 -0.067,0.364 -0.041,0.7 0.033,0.996 0.935,3.889 11.399,5.608 17.775,5.778 4.291,0.115 14.177,-0.234 16.776,-5.629 7.807,1.127 15.652,4.237 17.076,6.676 m -91.184,15.342 103.54,2.817 -0.08,-0.448 -2.825,-15.808 -0.015,-0.089 v -0.099 l -0.006,-2.063 -7.299,-0.411 c -0.627,-1.3 -2.029,-2.474 -3.857,-3.503 l 11.147,0.839 -0.014,-4.31 c -0.271,-0.757 -0.49,-1.441 -0.678,-2.162 -0.223,-0.786 -0.429,-1.578 -0.591,-2.367 -0.379,-1.578 -0.662,-3.161 -0.927,-4.75 -0.306,-1.585 -0.46,-3.179 -0.688,-4.768 -0.237,-1.588 -0.377,-3.185 -0.534,-4.779 -0.662,-6.374 -0.929,-12.764 -1.13,-19.149 -0.293,-12.775 0.021,-25.539 0.678,-38.278 0.435,-6.363 0.816,-12.731 1.351,-19.082 l 0.843,-9.525 c 0.279,-3.176 0.552,-6.351 0.917,-9.516 0.552,-4.806 1.079,-9.612 1.648,-14.412 l -74.153,-4.249 -124.851,-7.675 -62.415,-4.024 -33.432,-2.281 c -1.887,2.377 -2.683,5.215 -2.344,8.453 0.949,9.119 -4.786,40.688 -8.211,59.55 -0.688,3.788 -1.284,7.064 -1.711,9.531 -1.122,6.488 -2.177,26.88 1.736,48.487 0.36,1.996 0.778,4.062 1.255,6.167 l 234.834,14.489 c -2.235,0.831 -4.266,1.846 -5.565,3.009 L 67.408,96.045 c 2.591,10.822 6.859,22.571 13.87,31.814 l 44.237,1.009 21.971,0.5 27.182,0.62 z m 564.647,-11.743 63.803,0.888 c 1.544,-10.19 1.792,-23.224 2.256,-29.45 h -39.475 l -0.117,0.076 c -33.923,22.551 -48.796,34.519 -55.31,40.684 13.963,4.032 26.888,5.952 38.395,6.601 -10.335,-1.718 -18.158,-4.509 -22.843,-6.181 l -2.614,-0.93 z"
             style="fill:#000000;fill-opacity:1;fill-rule:nonzero;stroke:none"
             id="path2089" />
        </g>
      </g>
    </g>
  </g>
</svg>
