<svg version="1.1" id="svg4472" width="220" height="220" viewBox="0 0 880 880" sodipodi:docname="tree-in-nature-publicdomain-vector.svg" inkscape:version="1.2 (dc2aedaf03, 2022-05-15)" xmlns:inkscape="http://www.inkscape.org/namespaces/inkscape" xmlns:sodipodi="http://sodipodi.sourceforge.net/DTD/sodipodi-0.dtd" xmlns="http://www.w3.org/2000/svg" xmlns:svg="http://www.w3.org/2000/svg">
  <defs id="defs4476">
    <clipPath clipPathUnits="userSpaceOnUse" id="clipPath4490">
      <path d="M 0,660 H 660 V 0 H 0 Z" id="path4488"></path>
    </clipPath>
  </defs>
  <sodipodi:namedview id="namedview4474" pagecolor="#ffffff" bordercolor="#000000" borderopacity="0.25" inkscape:showpageshadow="2" inkscape:pageopacity="0.0" inkscape:pagecheckerboard="0" inkscape:deskcolor="#d1d1d1" showgrid="false" inkscape:zoom="0.95113636" inkscape:cx="440.52569" inkscape:cy="440.52569" inkscape:window-width="1920" inkscape:window-height="1017" inkscape:window-x="-8" inkscape:window-y="-8" inkscape:window-maximized="1" inkscape:current-layer="g4480">
    <inkscape:page x="0" y="0" id="page4478" width="880" height="880"></inkscape:page>
  </sodipodi:namedview>
  <g id="g4480" inkscape:groupmode="layer" inkscape:label="Page 1" transform="matrix(1.3333333,0,0,-1.3333333,0,880)">
    <path d="M 0.844,0 H 660 V 659.33 H 0.844 Z" style="fill:#cfe7ff;fill-opacity:1;fill-rule:nonzero;stroke:none" id="path4482"></path>
    <g id="g4484">
      <g id="g4486" clip-path="url(#clipPath4490)">
        <g id="g4492" transform="translate(660.5879,480.9966)">
          <path d="m 0,0 v 12.249 c -52.123,5.652 -8.117,23.564 -94.409,16.118 -24.072,-2.149 -125.987,-15.31 -122.541,16.407 1.539,14.15 33.968,22.623 50.21,23.865 32.888,0.79 42.507,-19.49 109.149,-12.145 17.081,1.882 37.917,5.654 50.862,-4.613 C -3.984,48.872 -2.158,46.18 0,44.026 v 44.247 c -11.527,-1.887 -25.759,-2.96 -35.896,-4.775 -47.889,-8.572 -73.544,-18.244 -104.711,17.398 -18.578,21.244 -23.447,20.279 -56.9,17.542 -4.621,-0.386 -157.673,-13.515 -94.827,6.874 25.093,8.14 92.117,17.188 105.742,23.568 6.009,3.602 -4.609,3.281 -8.969,3.489 -45.062,1.897 -79.326,0.397 -123.792,-1.242 -56.744,-2.089 -111.898,5.316 -171.093,1.996 -49.416,-2.771 -99.364,-7.652 -149.102,-10.835 -4.032,-0.257 -11.206,-0.664 -20.196,-1.195 v -28.551 c 3.621,0.479 6.501,1.372 8.199,2.834 10.359,8.926 87.069,-14.638 101.663,-19.393 23.487,-7.652 16.304,-17.555 9.959,-33.587 -7.149,-18.417 -13.072,-33.494 -42.747,-38.543 -35.698,-6.073 -43.945,21.741 -77.074,21.907 V 4.423 c 1.317,0 2.632,0.003 3.948,0.01 21.678,0.1 37.874,-2.786 60.824,-2.277 46.152,0.75 92.52,-5.182 130.32,17.922 33.577,20.08 39.221,8.862 75.914,1.221 42.622,-8.875 81.837,-1.082 122.07,-13.867 18.678,-5.935 29.771,-9.591 49.615,-14.122 27.339,-6.242 18.43,-7.478 49.952,-2.107 24.492,4.312 104.558,21.304 124.041,14.81 C -24.204,-0.27 -20.552,0.255 0,0" style="fill:#ebf5ff;fill-opacity:1;fill-rule:evenodd;stroke:none" id="path4494"></path>
        </g>
        <path d="M 0.844,-0.412 H 660.588 V 344.109 H 0.844 Z" style="fill:#c3d1e0;fill-opacity:1;fill-rule:evenodd;stroke:none" id="path4496"></path>
        <g id="g4498" transform="translate(147.5029,210.2051)">
          <path d="m 0,0 c -2.526,-25.012 27.994,-19.32 29.111,-0.099 3.214,-26.637 31.929,-20.749 29.937,0.492 8.908,-21.832 25.361,-14.519 20.475,6.326 8.648,-19.033 23.8,-16.206 15.795,4.573 11.824,-20.073 35.096,-6.839 24.541,11.599 15.921,-11.868 41.211,-0.577 14.979,16.701 34.769,3.021 29.724,36.229 -4.985,21.556 12.141,14.203 -12.41,35.693 -20.565,14.507 4.774,21.79 -18.296,28.747 -28.613,9.944 4.147,18.466 -19.808,30.558 -30.494,5.438 4.132,21.314 -26.085,29.747 -27.808,1.88 -1.363,21.27 -29.786,29.53 -27.116,-0.592 -5.584,23.774 -31.986,19.573 -22.998,-2.451 -9.148,18.528 -34.43,16.241 -27.444,-3.352 -7.763,17.522 -29.317,17.478 -18.995,-7.546 -9.81,15.683 -34.32,9.118 -16.547,-10.719 -15.429,14.237 -28.388,-0.931 -12.332,-13.886 -21.231,6.499 -18.458,-20.245 0.709,-17.585 -17.524,-15.663 2.814,-34.059 14.174,-14.202 -7.206,-19.549 19.936,-35.193 25.612,-11.807 -7.288,-27.37 16.476,-29.392 25.042,-6.389 C -42.504,-22.94 -7.799,-35.582 0,0" style="fill:#94ab13;fill-opacity:1;fill-rule:evenodd;stroke:none" id="path4500"></path>
        </g>
        <g id="g4502" transform="translate(471.3672,-0.4121)">
          <path d="m 0,0 h -470.523 v 295.309 c 26.548,1.398 53.749,2.129 81.455,2.129 290.233,0 525.512,-79.635 525.512,-177.871 C 136.444,73.532 84.777,31.583 0,0" style="fill:#cfe35d;fill-opacity:1;fill-rule:evenodd;stroke:none" id="path4504"></path>
        </g>
        <g id="g4506" transform="translate(494.1582,209.9844)">
          <path d="m 0,0 c -4.51,-12.363 -14.651,-13.097 -12.16,1.941 -6.894,-24.864 -31.948,-23.13 -19.093,4.5 -8.18,-14.326 -23.432,-2.44 -12.476,8.853 -12.917,-9.811 -28.015,8.337 -9.754,12.448 -17.847,-1.047 -16.953,18.537 0.862,15.174 -19.813,10.514 -6.83,26.858 10.216,12.459 -9.181,12.16 2.822,20.99 12.821,8.338 -8.187,15.133 11.772,24.482 19.243,7.825 -3.607,13.746 17.62,18.062 19.744,4.799 -1.619,18.938 22.503,22.708 25.84,2.769 0.004,16.501 24.826,17.166 19.473,2.361 12.163,18.247 29.921,12.163 18.467,-8.198 13.844,17.737 40.127,19.122 18.428,-1.873 11.314,8.999 27.417,6.095 15.372,-7.901 18.832,16.283 32.468,-7.595 11.178,-13.219 28.48,3.878 16.7,-24.678 -1.614,-17.333 C 130.425,22.935 117.336,5.545 103.891,19.681 112.78,5.783 95.194,-7.393 85.568,9.822 92.853,-5.181 72.021,-18.755 63.43,2.916 67.172,-11.489 41.108,-14.674 39.043,-2.138 38.798,-13.988 20.459,-24.599 19.44,-1.603 17.002,-21.387 -0.927,-13.582 0,0" style="fill:#94ab13;fill-opacity:1;fill-rule:evenodd;stroke:none" id="path4508"></path>
        </g>
        <g id="g4510" transform="translate(170.4023,223.3613)">
          <path d="m 0,0 c -2.527,25.013 27.993,19.321 29.111,0.098 3.214,26.639 31.927,20.75 29.938,-0.49 8.906,21.831 25.358,14.52 20.473,-6.326 8.649,19.033 23.801,16.206 15.794,-4.575 11.826,20.075 35.097,6.841 24.541,-11.598 15.923,11.869 41.214,0.576 14.981,-16.701 34.768,-3.021 29.724,-36.229 -4.985,-21.556 12.139,-14.203 -12.408,-35.694 -20.565,-14.507 4.774,-21.79 -18.295,-28.747 -28.614,-9.945 4.148,-18.465 -19.807,-30.558 -30.491,-5.438 4.13,-21.312 -26.086,-29.745 -27.811,-1.879 -1.362,-21.269 -29.785,-29.529 -27.116,0.592 -5.584,-23.774 -31.985,-19.573 -22.998,2.451 -9.147,-18.528 -34.429,-16.241 -27.444,3.353 -7.763,-17.522 -29.316,-17.48 -18.995,7.545 -9.809,-15.684 -34.319,-9.118 -16.546,10.719 -15.43,-14.237 -28.389,0.93 -12.332,13.886 -21.231,-6.498 -18.458,20.245 0.709,17.585 -17.523,15.664 2.814,34.058 14.174,14.203 -7.206,19.547 19.936,35.193 25.611,11.805 -7.287,27.372 16.477,29.392 25.043,6.39 C -42.504,22.94 -7.799,35.582 0,0" style="fill:#82970a;fill-opacity:1;fill-rule:evenodd;stroke:none" id="path4512"></path>
        </g>
        <g id="g4514" transform="translate(660.5879,281.4131)">
          <path d="m 0,0 v -281.825 h -365.632 c -43.167,28.213 -68.096,61.446 -68.096,97.031 C -433.728,-86.001 -241.744,-5.293 0,0" style="fill:#bad526;fill-opacity:1;fill-rule:evenodd;stroke:none" id="path4516"></path>
        </g>
        <g id="g4518" transform="translate(466.4014,220.2881)">
          <path d="m 0,0 c -2.527,25.013 27.993,19.321 29.11,0.098 3.215,26.639 31.929,20.75 29.938,-0.492 8.908,21.834 25.359,14.521 20.474,-6.324 8.648,19.032 23.801,16.204 15.795,-4.575 11.823,20.075 35.097,6.841 24.54,-11.598 15.923,11.868 41.213,0.577 14.982,-16.7 34.767,-3.022 29.722,-36.23 -4.986,-21.557 12.14,-14.204 -12.41,-35.694 -20.565,-14.507 4.774,-21.789 -18.296,-28.747 -28.613,-9.945 4.147,-18.465 -19.808,-30.557 -30.493,-5.438 4.131,-21.313 -26.086,-29.744 -27.809,-1.878 -1.362,-21.27 -29.786,-29.53 -27.116,0.591 -5.585,-23.774 -31.987,-19.573 -22.999,2.451 -9.147,-18.528 -34.428,-16.241 -27.445,3.351 -7.762,-17.522 -29.316,-17.478 -18.994,7.547 -9.808,-15.683 -34.319,-9.118 -16.547,10.719 -15.429,-14.237 -28.387,0.93 -12.331,13.887 -21.231,-6.499 -18.459,20.244 0.708,17.584 -17.523,15.664 2.815,34.058 14.175,14.202 -7.207,19.548 19.937,35.194 25.61,11.806 -7.287,27.372 16.477,29.392 25.043,6.39 C -42.505,22.94 -7.799,35.582 0,0" style="fill:#82970a;fill-opacity:1;fill-rule:evenodd;stroke:none" id="path4520"></path>
        </g>
        <g id="g4522" transform="translate(660.5879,179.8027)">
          <path d="m 0,0 v -180.215 h -659.744 v 175.41 c 100.096,17.307 218.148,27.311 344.599,27.311 C -200.894,22.506 -93.494,14.34 0,0" style="fill:#94ab13;fill-opacity:1;fill-rule:evenodd;stroke:none" id="path4524"></path>
        </g>
        <g id="g4526" transform="translate(660.5879,179.8027)">
          <path d="M 0,0 V -180.215 H -467.722 C -408.889,-95.427 -252.467,-26.491 -48.877,6.77 -32.205,4.699 -15.901,2.439 0,0" style="fill:#82970a;fill-opacity:1;fill-rule:evenodd;stroke:none" id="path4528"></path>
        </g>
        <g id="g4530" transform="translate(492.9316,154.665)">
          <path d="m 0,0 c 10.591,-16.756 -8.047,-17.881 -20.055,-15.734 -32.573,5.831 -39.004,3.873 -69.614,2.505 -19.547,-0.873 -27.822,1.059 -46.637,3.81 -8.205,1.201 -12.72,1.166 -20.882,-0.173 -15.851,-4.135 -19.036,-18.97 -38.165,-3.484 -41.267,32.549 -46.754,12.931 -92.386,20.145 -31.887,5.044 -6.916,18.655 10.401,22.559 25.852,5.484 33.554,0.822 54.826,21.002 17.673,19.171 45.109,60.446 37.746,87.429 -7.579,27.783 -25.407,40.668 -50.517,51.933 -20.916,9.018 -37.015,13.898 -55.817,27.905 -4.661,3.669 -8.943,7.325 -13.466,11.126 -19.015,15.897 -35.985,30.41 -59.741,38.664 -14.13,4.909 2.154,15.66 26.8,4.079 40.265,-20.715 71.151,-52.074 118.145,-60.238 22.482,-2.89 23.053,13.191 21.389,31.575 -3.384,24.253 -10.071,31.335 -10.696,59.133 -0.146,6.366 -2.15,84.933 12.164,41.479 8.938,-27.766 11.309,-40.876 24.757,-68.16 11.828,-24.004 12.255,-37.322 19.858,-60.635 22.248,-68.211 65.989,-8.271 78.971,29.694 4.1,11.99 8.843,44.175 22.896,47.263 7.05,-10.423 -8.656,-55.815 -12.504,-68.072 -11.217,-35.331 -16.608,-41.713 -40.254,-69.307 -20.56,-23.993 -16.147,-48.704 -8.779,-77.24 4.638,-17.954 14.917,-37.704 33.32,-44.472 C -50.484,22.579 -19.247,26.782 0,0" style="fill:#663c12;fill-opacity:1;fill-rule:evenodd;stroke:none" id="path4532"></path>
        </g>
        <g id="g4534" transform="translate(189.874,168.9668)">
          <path d="m 0,0 c -0.746,5.814 14.182,12.727 25.72,15.326 25.852,5.483 33.553,0.822 54.826,21.002 17.673,19.171 45.109,60.447 37.746,87.429 -7.579,27.783 -25.408,40.668 -50.518,51.933 -20.915,9.018 -37.012,13.898 -55.817,27.905 -4.006,3.154 -7.733,6.298 -11.573,9.533 7.328,4.934 15.009,7.765 22.819,8.836 18.296,-11.161 37.46,-20.736 60.492,-24.737 1.286,-0.166 2.497,-0.266 3.643,-0.31 17.574,-15.788 31.75,-36.823 38.574,-56.988 C 151.415,64.545 111.69,19.252 38.988,4.692 27.844,2.46 14.075,0.405 0,0" style="fill:#82501e;fill-opacity:1;fill-rule:evenodd;stroke:none" id="path4536"></path>
        </g>
        <g id="g4538" transform="translate(294.3628,504.0889)">
          <path d="m 0,0 c -0.315,-0.505 -0.607,-1.047 -0.859,-1.644 l -0.73,-3.209 c -0.381,-32.582 22.741,-89.05 33.403,-120.859 6.487,-19.362 20.279,-50.172 38.959,-39.579 -9.013,1.606 -17.499,10.563 -24.094,30.787 -7.603,23.313 -8.03,36.63 -19.858,60.635 C 13.373,-46.585 11.001,-33.475 2.064,-5.709 1.335,-3.491 0.647,-1.607 0,0 m 198.569,-349.424 c 10.59,-16.756 -8.047,-17.883 -20.054,-15.732 -5.891,1.053 -10.923,1.852 -15.402,2.447 -10.534,7.313 -20.304,14.498 -28.254,19.284 -39.659,23.88 -78.519,14.196 -91.085,65.191 -1.439,31.152 7.601,46.956 26.626,70.576 l 2.594,3.207 c 55.28,68.363 54.607,63.141 75.466,146.882 l 0.085,0.022 c 7.051,-10.422 -8.655,-55.815 -12.503,-68.072 -11.217,-35.331 -16.608,-41.713 -40.254,-69.307 -20.56,-23.993 -16.147,-48.704 -8.78,-77.24 4.639,-17.954 14.917,-37.705 33.321,-44.472 27.756,-10.205 58.993,-6.006 78.24,-32.786" style="fill:#47290a;fill-opacity:1;fill-rule:evenodd;stroke:none" id="path4540"></path>
        </g>
        <g id="g4542" transform="translate(379.1729,569.7852)">
          <path d="m 0,0 c 11.028,30.241 35.837,32.036 29.745,-4.748 16.862,60.819 78.147,56.578 46.701,-11.01 20.007,35.042 57.315,5.968 30.518,-21.655 31.595,23.999 68.527,-20.391 23.861,-30.446 43.653,2.557 41.466,-45.346 -2.113,-37.117 48.465,-25.717 16.709,-65.697 -24.987,-30.476 22.46,-29.746 -6.903,-51.343 -31.36,-20.396 20.024,-37.015 -28.797,-59.887 -47.072,-19.141 8.821,-33.625 -43.099,-44.182 -48.299,-11.738 3.964,-46.325 -55.038,-55.547 -63.204,-6.775 -0.006,-40.363 -60.725,-41.988 -47.631,-5.773 -29.755,-44.632 -73.191,-29.752 -45.171,20.053 -33.867,-43.387 -98.154,-46.773 -45.078,4.581 -27.676,-22.014 -67.064,-14.911 -37.602,19.326 -46.065,-39.83 -79.418,18.578 -27.343,32.334 -69.661,-9.485 -40.849,60.364 3.952,42.398 -33.951,24.479 -1.935,67.02 30.956,32.443 -21.745,33.993 21.272,66.226 44.819,24.115 -17.821,36.699 33.137,69.902 54.15,16.892 -9.153,35.236 54.599,43.029 59.651,12.362 0.6,28.987 45.46,54.938 47.953,-1.312 C -41.589,52.31 2.265,33.222 0,0" style="fill:#94ab13;fill-opacity:1;fill-rule:evenodd;stroke:none" id="path4544"></path>
        </g>
        <g id="g4546" transform="translate(509.998,501.9263)">
          <path d="m 0,0 c 43.653,2.557 41.466,-45.346 -2.113,-37.117 48.465,-25.717 16.709,-65.697 -24.987,-30.476 22.459,-29.746 -6.903,-51.344 -31.362,-20.396 20.026,-37.015 -28.795,-59.887 -47.07,-19.141 8.821,-33.625 -43.099,-44.182 -48.299,-11.737 3.964,-46.326 -55.038,-55.548 -63.204,-6.777 -0.007,-40.362 -60.725,-41.987 -47.631,-5.772 -29.755,-44.633 -73.19,-29.753 -45.171,20.053 -33.867,-43.388 -98.154,-46.774 -45.078,4.581 -27.675,-22.015 -67.064,-14.911 -37.602,19.326 l -2.552,-2.108 c 0.846,0.673 1.696,1.369 2.552,2.108 -1.389,-27.678 33.154,-22.554 46.644,-9.183 -10.346,-32.248 27.755,-15.754 44.882,-2.214 -32.692,-42.834 38.009,-27.62 44.606,-8.863 -10.294,-41.057 35.098,-23.625 41.346,3.557 8.965,-28.166 57.218,-11.873 57.911,12.986 5.909,-32.395 46.118,-19.139 44.494,5.627 22.159,-30.399 56.437,4.17 43.538,22.436 11.913,-18.708 37.121,-4.332 22.449,13.885 21.164,-19.703 47.067,-2.461 25.404,20.678 C 5.785,-38.036 32.257,-16.212 0,0" style="fill:#82970a;fill-opacity:1;fill-rule:evenodd;stroke:none" id="path4548"></path>
        </g>
        <g id="g4550" transform="translate(257.6279,536.9629)">
          <path d="m 0,0 c -2.87,28.396 31.778,21.935 33.048,0.111 3.648,30.242 36.244,23.556 33.986,-0.556 10.111,24.783 28.787,16.482 23.241,-7.181 9.819,21.605 27.021,18.397 17.932,-5.194 13.423,22.789 39.844,7.765 27.859,-13.166 18.077,13.472 46.787,0.653 17.006,-18.961 39.471,-3.431 33.742,-41.128 -5.66,-24.471 13.783,-16.125 -14.087,-40.52 -23.345,-16.468 5.419,-24.737 -20.769,-32.636 -32.484,-11.29 4.709,-20.963 -22.484,-34.69 -34.616,-6.173 4.691,-24.196 -29.614,-33.77 -31.569,-2.133 -1.547,-24.148 -33.815,-33.524 -30.784,0.671 -6.341,-26.989 -36.311,-22.22 -26.107,2.783 -10.385,-21.036 -39.087,-18.438 -31.156,3.803 -8.814,-19.89 -33.282,-19.84 -21.564,8.568 -11.137,-17.804 -38.961,-10.351 -18.784,12.168 -17.518,-16.161 -32.229,1.057 -14,15.764 -24.104,-7.377 -20.954,22.984 0.805,19.964 -19.894,17.781 3.194,38.665 16.09,16.122 -8.181,22.192 22.633,39.954 29.075,13.404 -8.273,31.072 18.705,33.366 28.429,7.254 C -48.253,26.042 -8.854,40.394 0,0" style="fill:#bad526;fill-opacity:1;fill-rule:evenodd;stroke:none" id="path4552"></path>
        </g>
        <g id="g4554" transform="translate(410.7002,492.0161)">
          <path d="m 0,0 c 39.471,-3.431 33.742,-41.128 -5.66,-24.471 13.783,-16.125 -14.087,-40.52 -23.345,-16.468 5.419,-24.737 -20.769,-32.636 -32.484,-11.29 4.709,-20.963 -22.485,-34.69 -34.616,-6.173 4.691,-24.196 -29.614,-33.77 -31.569,-2.133 -1.547,-24.148 -33.815,-33.525 -30.784,0.671 -6.341,-26.989 -36.311,-22.221 -26.107,2.783 -10.385,-21.036 -39.087,-18.439 -31.157,3.803 -8.813,-19.89 -33.281,-19.84 -21.564,8.568 1.91,-12.953 21.564,-8.568 28.739,-0.815 -2.267,-15.164 17.625,-14.672 25.994,-4.727 2.067,-21.467 20.975,-11.028 27.472,0.296 2.541,-24.675 23.1,-12.127 29.777,-0.466 2.89,-14.475 21.123,-13.72 28.429,4.652 12.23,-26.799 35.663,-14.481 33.666,5.267 11.662,-19.857 34.085,-12.978 25.405,9.157 18.707,-17.038 38.008,-2.949 22.746,11.52 C 7.884,-24.664 19.719,-6.374 0,0" style="fill:#a7bf1c;fill-opacity:1;fill-rule:evenodd;stroke:none" id="path4556"></path>
        </g>
        <g id="g4558" transform="translate(191.3101,492.3208)">
          <path d="M 0,0 C -2.059,13.348 21.058,15.559 20.314,7.057 L 19.076,3.262 C 14.949,-3.786 6.774,-5.665 0,0 M 65.571,15.964 C 64.575,28.71 94.772,30.293 82.347,15.828 77.467,10.147 69.889,7.725 65.571,15.964 m 73.437,9.363 c 29.877,6.041 15.264,-26.917 -6.469,-15.324 -12.301,6.56 -1.083,12.807 6.469,15.324 M 46.163,-8.198 c 15.425,14.383 22.903,-11.659 3.566,-12.928 -10.503,-0.689 -7.882,7.276 -3.566,12.928 m 45.011,-3.43 c 0.025,13.464 26.666,8.779 13.671,-4.124 -6.021,-5.98 -11.615,-3.64 -13.671,4.124 m 100.304,23.89 c 34,-1.321 16.532,-42.923 -8.678,-21.029 -13.11,11.388 -6.168,19.16 8.678,21.029 M -23.567,-9.994 c -8.456,-24.708 -41.128,5.259 -17.055,9.911 7.047,1.362 16.75,-1.054 17.055,-9.911" style="fill:#cfe35d;fill-opacity:1;fill-rule:evenodd;stroke:none" id="path4560"></path>
        </g>
        <g id="g4562" transform="translate(422.9092,531.5259)">
          <path d="M 0,0 C -7.3,-15.44 -25.565,15.597 -9.361,17.404 0.567,18.511 1.565,7.38 0,0 m 53.183,-35.226 c 4.547,-39.343 -64.384,0.165 -29.657,14.006 13.536,5.393 24.532,-0.706 29.657,-14.006" style="fill:#bad526;fill-opacity:1;fill-rule:evenodd;stroke:none" id="path4564"></path>
        </g>
      </g>
    </g>
  </g>
</svg>