<?xml version="1.0" encoding="utf-8"?>
<!-- Generator: Adobe Illustrator 16.0.3, SVG Export Plug-In . SVG Version: 6.00 Build 0)  -->
<!DOCTYPE svg PUBLIC "-//W3C//DTD SVG 1.1//EN" "http://www.w3.org/Graphics/SVG/1.1/DTD/svg11.dtd">
<svg version="1.1" id="Layer_1" xmlns="http://www.w3.org/2000/svg" xmlns:xlink="http://www.w3.org/1999/xlink" x="0px" y="0px"
	 width="512px" height="512px" viewBox="0 0 512 512" style="enable-background:new 0 0 512 512;" xml:space="preserve">
<style type="text/css">
<![CDATA[
	.st0{fill:#14B6B9;}
	.st1{fill:#4B7BB2;}
	.st2{fill:#1E4384;}
	.st3{fill:#ED488B;}
	.st4{fill:#EF4754;}
	.st5{fill:#EF4823;}
	.st6{fill:#8A4581;}
	.st7{fill:#BCBCBC;}
	.st8{fill:#F26322;}
	.st9{fill:#F6851F;}
	.st10{fill:#283D5B;}
	.st11{fill:#C56528;}
	.st12{fill:#2B8C5E;}
	.st13{fill:#FCBF95;}
	.st14{fill:#FEBF10;}
	.st15{fill:none;}
	.st16{fill:#CAD7D6;}
	.st17{fill:#CBDB2D;}
	.st18{fill:#373837;}
	.st19{fill:#D03827;}
	.st20{fill:#3AB37C;}
	.st21{fill:#D6E5E5;}
	.st22{fill:#71C598;}
]]>
</style>
<g>
	<g>
		<g>
			<path class="st21" d="M389.229,204.534l-0.055-7.21c-28.961-0.857-57.824,0.796-86.703,2.472
				c-0.127-0.765-0.247-1.53-0.366-2.296h-0.373c0-0.858,0.004-1.717,0.005-2.575c-0.056-0.415-0.12-0.827-0.17-1.243
				c-0.028-1.287-0.112-2.577-0.227-3.87c0.136-0.008,0.271-0.016,0.405-0.023c0.036-23.115,0.217-46.231,0.241-69.33
				c-20.929-0.14-41.843-0.972-62.776-0.972h-39.554c-0.085,0.738-0.16,1.479-0.192,2.22c-0.16,3.661-0.176,7.327-0.127,10.99
				c0.09,7.003,0.391,13.999,0.584,20.999c0.363,13.214,0.928,26.416,1.371,39.621h0.006l-0.005,0.039
				c0.046,1.381,0.098,2.763,0.141,4.145h-0.689l-0.763,5.759c-27.61,0.259-55.231,0.204-82.823,0.389
				c0.021,20.929-0.647,41.849-0.486,62.782l0.305,39.553c0.739,0.078,1.48,0.148,2.223,0.176c3.662,0.131,7.328,0.117,10.99,0.041
				c7.002-0.145,13.995-0.5,20.995-0.746c16.275-0.574,33.846-1.379,50.113-1.953l-0.271,2h0.089
				c-0.019,2.142-0.046,4.283-0.062,6.425c-0.188,25.978-0.671,52.103,1.539,78.016c17.592,1.663,35.88,1.363,53.441,0.369
				c13.91-0.788,29.697-3.391,42.963,2.204h7.211c1.084-29.052-0.359-58.024-1.816-87.014h0.59v-2.41
				c1.473,0.004,2.946,0.008,4.419,0.008c25.979-0.014,52.105,0.268,78-2.141c1.527-17.605,1.087-35.891-0.043-53.445
				C386.461,233.609,383.737,217.843,389.229,204.534z"/>
		</g>
	</g>
	<g>
		<g>
			<path class="st22" d="M474.227,161.74c-16.125-46.553-46.66-87.148-91.268-109.607c-50.949-25.65-110.953-28.072-166.416-19.262
				c-49.779,7.906-102.279,25.918-139.578,61.098c-19.578,18.467-34.738,40.916-42.662,66.768
				c-7.961,25.975-10.365,53.113-12.104,80.102c-0.072,1.145-0.426,2.039-0.953,2.711c0.031,0.246,0.051,0.502,0.051,0.771
				c0,52.928-1.062,108.336,30.076,153.939c25.32,37.082,64.48,61.467,107.197,73.711c88,25.225,194.16,9.605,264.924-50.809
				C497.602,357.891,504.41,248.877,474.227,161.74z M397.558,251.883c0.282,18.18,1.228,36.439-0.646,54.564
				c-0.229,2.221-2.41,3.85-4.491,4.068c-25.728,2.694-51.729,2.649-77.604,2.573c1.384,27.989,2.51,55.973,1.152,84.026
				c-0.123,2.547-1.636,5.371-4.602,5.371h-15c-1.744,0-3.07-0.74-3.951-1.813c-12.67-4.136-27.967-0.296-40.83-0.196
				c-18.18,0.142-36.447,0.945-54.558-1.068c-2.218-0.247-3.831-2.44-4.032-4.523c-2.615-26.979-2.221-54.236-1.934-81.334
				c-14.812,0.602-29.629,1.469-44.415,2.09c-7.947,0.332-15.919,0.719-23.876,0.559c-4.1-0.082-12.375,0.689-14.874-3.676
				c-0.203-0.355-0.358-0.711-0.473-1.064c-0.242-0.555-0.387-1.199-0.392-1.947l-0.327-42.236
				c-0.172-22.393,0.617-44.771,0.482-67.162c-0.004-0.48,0.055-0.926,0.157-1.344c-0.235-2.506,1.154-5.037,4.394-5.062
				c26.149-0.201,53.368-0.137,79.772-0.314c-0.485-14.777-1.236-29.561-1.742-44.312c-0.271-7.949-0.596-15.924-0.374-23.879
				c0.114-4.1-0.595-12.381,3.791-14.846c0.356-0.201,0.714-0.354,1.067-0.466c0.556-0.237,1.201-0.376,1.949-0.376h42.238
				c22.394,0,44.766,0.963,67.156,1c0.48,0.001,0.926,0.063,1.344,0.168c2.507-0.215,5.027,1.193,5.027,4.434
				c0,24.683-0.224,49.393-0.271,74.1c27.307-1.548,54.613-2.8,82.003-1.686c2.549,0.103,5.385,1.594,5.407,4.56l0.104,13.46
				c0,0.02-0.001,0.04,0,0.061l0.012,1.479c0.014,1.744-0.717,3.076-1.783,3.965C393.4,223.755,397.359,239.021,397.558,251.883z"/>
		</g>
	</g>
	<g>
		<g>
			<path d="M487.895,168.676c-14.17-46.857-40.941-88.285-82.014-115.738C359.521,21.951,300.605,14.49,246.098,18.49
				c-51.699,3.795-104.629,17.898-148.596,45.979C75.9,78.264,56.623,96.367,42.535,117.85
				c-14.859,22.66-22.512,48.775-26.58,75.363c-2.311,15.084-3.439,30.332-4.418,45.553c-0.062,0.949,0.094,1.805,0.398,2.562
				c-0.889,0.938-1.473,2.219-1.473,3.828c0,30.127-0.645,60.4,4.645,90.184c4.822,27.145,15.229,52.928,31.631,75.148
				c29.15,39.498,73.502,63.312,120.389,74.99c88.939,22.154,194.244,3.654,264.5-57.08
				C505.605,364.445,514.785,257.611,487.895,168.676z M423.494,421.162c-70.764,60.414-176.924,76.033-264.924,50.809
				c-42.717-12.244-81.877-36.629-107.197-73.711C20.234,352.656,21.297,297.248,21.297,244.32c0-0.27-0.02-0.525-0.051-0.771
				c0.527-0.672,0.881-1.566,0.953-2.711c1.738-26.988,4.143-54.127,12.104-80.102c7.924-25.852,23.084-48.301,42.662-66.768
				c37.299-35.18,89.799-53.191,139.578-61.098c55.463-8.811,115.467-6.389,166.416,19.262
				c44.607,22.459,75.143,63.055,91.268,109.607C504.41,248.877,497.602,357.891,423.494,421.162z"/>
		</g>
	</g>
	<g>
		<g>
			<path d="M397.439,211.053c1.066-0.889,1.797-2.221,1.783-3.965l-0.012-1.479c-0.001-0.021,0-0.041,0-0.061l-0.104-13.46
				c-0.022-2.966-2.858-4.457-5.407-4.56c-27.39-1.114-54.696,0.138-82.003,1.686c0.048-24.707,0.271-49.417,0.271-74.1
				c0-3.24-2.521-4.648-5.027-4.434c-0.418-0.104-0.863-0.167-1.344-0.168c-22.391-0.037-44.763-1-67.156-1h-42.238
				c-0.748,0-1.394,0.139-1.949,0.376c-0.354,0.112-0.711,0.265-1.067,0.466c-4.386,2.465-3.677,10.746-3.791,14.846
				c-0.222,7.955,0.103,15.93,0.374,23.879c0.506,14.752,1.257,29.535,1.742,44.312c-26.404,0.178-53.623,0.113-79.772,0.314
				c-3.239,0.025-4.629,2.557-4.394,5.062c-0.103,0.418-0.161,0.863-0.157,1.344c0.135,22.391-0.654,44.77-0.482,67.162
				l0.327,42.236c0.005,0.748,0.149,1.393,0.392,1.947c0.114,0.354,0.27,0.709,0.473,1.064c2.499,4.365,10.774,3.594,14.874,3.676
				c7.957,0.16,15.929-0.227,23.876-0.559c14.786-0.621,29.603-1.488,44.415-2.09c-0.287,27.098-0.682,54.355,1.934,81.334
				c0.201,2.083,1.814,4.276,4.032,4.523c18.11,2.014,36.378,1.21,54.558,1.068c12.863-0.1,28.16-3.939,40.83,0.196
				c0.881,1.073,2.207,1.813,3.951,1.813h15c2.966,0,4.479-2.824,4.602-5.371c1.357-28.054,0.231-56.037-1.152-84.026
				c25.875,0.076,51.877,0.121,77.604-2.573c2.081-0.219,4.262-1.848,4.491-4.068c1.874-18.125,0.929-36.385,0.646-54.564
				C397.359,239.021,393.4,223.755,397.439,211.053z M387.357,247.512c1.13,17.555,1.57,35.84,0.043,53.445
				c-25.895,2.408-52.021,2.127-78,2.141c-1.473,0-2.946-0.004-4.419-0.008v2.41h-0.59c1.457,28.989,2.9,57.962,1.816,87.014h-7.211
				c-13.266-5.595-29.053-2.992-42.963-2.204c-17.562,0.994-35.85,1.294-53.441-0.369c-2.21-25.913-1.727-52.038-1.539-78.016
				c0.016-2.142,0.043-4.283,0.062-6.425h-0.089l0.271-2c-16.268,0.574-33.838,1.379-50.113,1.953
				c-7,0.246-13.993,0.602-20.995,0.746c-3.662,0.076-7.328,0.09-10.99-0.041c-0.742-0.027-1.483-0.098-2.223-0.176l-0.305-39.553
				c-0.161-20.934,0.508-41.854,0.486-62.782c27.592-0.185,55.213-0.13,82.823-0.389l0.763-5.759h0.689
				c-0.043-1.382-0.095-2.764-0.141-4.145l0.005-0.039h-0.006c-0.443-13.205-1.008-26.407-1.371-39.621
				c-0.193-7-0.494-13.996-0.584-20.999c-0.049-3.663-0.033-7.329,0.127-10.99c0.032-0.741,0.107-1.481,0.192-2.22h39.554
				c20.934,0,41.848,0.832,62.776,0.972c-0.024,23.099-0.205,46.215-0.241,69.33c-0.135,0.008-0.27,0.016-0.405,0.023
				c0.114,1.293,0.198,2.583,0.227,3.87c0.05,0.416,0.114,0.828,0.17,1.243c-0.001,0.858-0.005,1.717-0.005,2.575h0.373
				c0.119,0.766,0.239,1.531,0.366,2.296c28.879-1.676,57.742-3.329,86.703-2.472l0.055,7.21
				C383.737,217.843,386.461,233.609,387.357,247.512z"/>
		</g>
	</g>
</g>
</svg>
