<?xml version="1.0" ?><svg viewBox="0 0 64 64" xmlns="http://www.w3.org/2000/svg"><defs><style>.cls-1{fill:#0072ff;}</style></defs><title/><g data-name="Layer 2" id="Layer_2"><path class="cls-1" d="M29.54,6.41a.66.66,0,0,0-.11-1,8.67,8.67,0,0,0-11,1.29A9,9,0,0,0,18.77,19L30.4,30.61a2.22,2.22,0,0,0,3.14,0L45.35,18.8a8.67,8.67,0,0,0-.28-12.53,8.85,8.85,0,0,0-12.17.46L32,7.66,29.78,9.84A1.3,1.3,0,0,1,27.94,8Z"/><path class="cls-1" d="M11.3,20a1.06,1.06,0,0,0-1,.8L9.79,22A26,26,0,0,0,8.2,27.95v0l-.55,3.87A22.72,22.72,0,0,0,10.81,47l4.77,7.71a2.89,2.89,0,0,1,.13,2.8l-.43.87a1.12,1.12,0,0,0,1,1.61h7.89A4.88,4.88,0,0,0,29,55.74l.87-6.93a16,16,0,0,0-1.56-9.12h0A14.44,14.44,0,0,0,23,33.86l-6.13-3.78a1.56,1.56,0,0,0-2.38,1.33,6.3,6.3,0,0,0,1.84,4.45l3.74,3.74a1.41,1.41,0,1,1-2,2l-3.26-3.26a8.59,8.59,0,0,1-2.5-5.62l-.17-3.2a53.08,53.08,0,0,1,.22-8.37A1.06,1.06,0,0,0,11.3,20Z"/><path class="cls-1" d="M47.68,35.86a6.3,6.3,0,0,0,1.84-4.45,1.56,1.56,0,0,0-2.38-1.33L41,33.86a14.44,14.44,0,0,0-5.34,5.83h0a16,16,0,0,0-1.56,9.12L35,55.74A4.88,4.88,0,0,0,39.83,60h7.89a1.12,1.12,0,0,0,1-1.61l-.43-.87a2.89,2.89,0,0,1,.13-2.8L53.19,47a22.72,22.72,0,0,0,3.16-15.16L55.81,28v0A26,26,0,0,0,54.21,22l-.49-1.22a1.06,1.06,0,0,0-2.08.37,53.08,53.08,0,0,1,.22,8.37l-.17,3.2a8.59,8.59,0,0,1-2.5,5.62L45.94,41.6a1.41,1.41,0,1,1-2-2Z"/></g></svg>