<svg id="Layer_1" data-name="Layer 1" xmlns="http://www.w3.org/2000/svg" viewBox="0 0 96 96"><defs><style>.cls-1{fill:#cba07a;}.cls-2{fill:#d9b18c;}.cls-3{fill:#e5c2a1;}.cls-4{fill:#dc5d6b;}.cls-5{fill:#cf4055;}.cls-6{fill:#39426a;}.cls-7{fill:#f6b756;}</style></defs><title>hotdog, sandwich, food, meal, snack, fast food</title><path class="cls-1" d="M95,49.85C95,64.3,74,72,48,72S1,64.3,1,49.85a8.67,8.67,0,0,1,.18-1.78,8.3,8.3,0,0,1,.62-1.94A7.76,7.76,0,0,1,3,44.25a6.87,6.87,0,0,1,.91-.88l0,0a5.32,5.32,0,0,1,4.94-.78c1.71.55,3.58,1.12,5.61,1.68A126.53,126.53,0,0,0,48,49a126.67,126.67,0,0,0,33.47-4.74c2-.56,3.92-1.13,5.64-1.69a5.32,5.32,0,0,1,4.94.78l0,0a7,7,0,0,1,.92.89,8.2,8.2,0,0,1,1.82,3.82A8.57,8.57,0,0,1,95,49.85Z"/><path class="cls-2" d="M94.82,48.08C92.77,61.09,72.59,68,48,68S3.22,61.09,1.18,48.07a8.3,8.3,0,0,1,.62-1.94A7.76,7.76,0,0,1,3,44.25a6.87,6.87,0,0,1,.91-.88l0,0a5.32,5.32,0,0,1,4.94-.78c1.71.55,3.58,1.12,5.61,1.68A126.53,126.53,0,0,0,48,49a126.67,126.67,0,0,0,33.47-4.74c2-.56,3.92-1.13,5.64-1.69a5.32,5.32,0,0,1,4.94.78l0,0a7,7,0,0,1,.92.89A8.2,8.2,0,0,1,94.82,48.08Z"/><path class="cls-3" d="M90.72,48.2c-2.09,8.69-16.51,14.72-37,15.67A5.5,5.5,0,0,1,48,58.37h0a5.51,5.51,0,0,1,5.3-5.49,131.4,131.4,0,0,0,29.24-4.77c1.94-.53,3.9-1.11,5.81-1.74a1.67,1.67,0,0,1,.53-.08,1.09,1.09,0,0,1,.7.21l.06,0a2.26,2.26,0,0,1,.31.31A4,4,0,0,1,90.72,48.2Z"/><path class="cls-2" d="M95,31.56a15.28,15.28,0,0,1-.17,2.25,16.86,16.86,0,0,1-.47,2.08c0-.09-.08-.19-.13-.28a7.89,7.89,0,0,0-9.77-4.07,118.83,118.83,0,0,1-15.85,4.35A103.24,103.24,0,0,1,48,38.05,103.81,103.81,0,0,1,27.41,35.9a119.48,119.48,0,0,1-15.87-4.36,7.79,7.79,0,0,0-2.63-.46A7.89,7.89,0,0,0,1.78,35.6l-.14.3a16.86,16.86,0,0,1-.47-2.08A15.52,15.52,0,0,1,1,31.56a8.89,8.89,0,0,1,.8-3.72,7.61,7.61,0,0,1,2.12-2.76l0,0a5.35,5.35,0,0,1,4.94-.78A129.19,129.19,0,0,0,48,30.71a129.13,129.13,0,0,0,39.11-6.43,5.35,5.35,0,0,1,4.94.78l0,0A8.29,8.29,0,0,1,95,31.56Z"/><path class="cls-1" d="M94.83,33.81a16.86,16.86,0,0,1-.47,2.08c0-.09-.08-.19-.13-.28a7.89,7.89,0,0,0-9.77-4.07,118.83,118.83,0,0,1-15.85,4.35A103.24,103.24,0,0,1,48,38.05,103.81,103.81,0,0,1,27.41,35.9a119.48,119.48,0,0,1-15.87-4.36,7.79,7.79,0,0,0-2.63-.46A7.89,7.89,0,0,0,1.78,35.6l-.14.3a16.86,16.86,0,0,1-.47-2.08,8.64,8.64,0,0,1,.63-2,7.61,7.61,0,0,1,2.12-2.76l0,0a5.35,5.35,0,0,1,4.94-.78A129.19,129.19,0,0,0,48,34.71a129.13,129.13,0,0,0,39.11-6.43,5.35,5.35,0,0,1,4.94.78l0,0A8,8,0,0,1,94.83,33.81Z"/><path class="cls-4" d="M95,39a7.89,7.89,0,0,1-1.09,4A7.47,7.47,0,0,1,93,44.26a7,7,0,0,0-.92-.89l0,0a5.32,5.32,0,0,0-4.94-.78c-1.72.56-3.6,1.13-5.64,1.69A126.67,126.67,0,0,1,48,49a126.53,126.53,0,0,1-33.5-4.75c-2-.56-3.9-1.13-5.61-1.68A5.32,5.32,0,0,0,4,43.35l0,0a6.87,6.87,0,0,0-.91.88A7.91,7.91,0,0,1,1.64,35.9l.14-.3a7.89,7.89,0,0,1,7.13-4.52,7.79,7.79,0,0,1,2.63.46A119.48,119.48,0,0,0,27.41,35.9,103.81,103.81,0,0,0,48,38.05a103.24,103.24,0,0,0,20.61-2.16,118.83,118.83,0,0,0,15.85-4.35,7.89,7.89,0,0,1,9.77,4.07c0,.09.09.19.13.28A7.79,7.79,0,0,1,95,39Z"/><path class="cls-5" d="M93.91,43A7.47,7.47,0,0,1,93,44.26a7,7,0,0,0-.92-.89l0,0a5.32,5.32,0,0,0-4.94-.78c-1.72.56-3.6,1.13-5.64,1.69A126.67,126.67,0,0,1,48,49a126.53,126.53,0,0,1-33.5-4.75c-2-.56-3.9-1.13-5.61-1.68A5.32,5.32,0,0,0,4,43.35l0,0a6.87,6.87,0,0,0-.91.88A7.82,7.82,0,0,1,2.1,43a7.88,7.88,0,0,1,6.81-3.92,7.79,7.79,0,0,1,2.63.46A119.48,119.48,0,0,0,27.41,43.9,103.81,103.81,0,0,0,48,46.05a103.24,103.24,0,0,0,20.61-2.16,118.83,118.83,0,0,0,15.85-4.35A7.89,7.89,0,0,1,93.91,43Z"/><path class="cls-6" d="M48,31.74A130.7,130.7,0,0,1,8.57,25.26a1,1,0,1,1,.64-2A128.35,128.35,0,0,0,48,29.69a128.35,128.35,0,0,0,38.79-6.38,1,1,0,1,1,.64,2A130.7,130.7,0,0,1,48,31.74Z"/><path class="cls-7" d="M40.09,46.46h-.26c-1.77-.13-3.19-1.45-4.57-2.74-1-1-2.09-1.94-3-2.07s-2.41.57-3.73,1.26c-1.59.83-3.24,1.68-4.84,1.36-1.8-.36-3.07-1.87-4.3-3.34-.88-1.05-1.79-2.14-2.62-2.35-1.13-.3-2.64.27-4.1.82C11,40,9.4,40.63,8,40.16a1,1,0,0,1,.63-1.95c.76.24,2.08-.26,3.36-.74,1.68-.63,3.58-1.35,5.34-.89,1.46.38,2.58,1.72,3.67,3s2,2.43,3.13,2.65c.89.18,2.22-.51,3.49-1.17,1.61-.84,3.27-1.7,5-1.47s2.86,1.43,4.13,2.6c1.11,1,2.27,2.12,3.32,2.19s2.19-.8,3.39-1.64c1.46-1,3-2.07,4.63-2.07s3.17,1.05,4.63,2.07c1.2.84,2.45,1.7,3.39,1.64s2.21-1.15,3.33-2.19,2.56-2.39,4.11-2.6,3.35.63,5,1.47c1.28.66,2.6,1.35,3.49,1.17C73,42,74,40.8,75,39.6s2.21-2.63,3.67-3c1.76-.45,3.66.26,5.34.89,1.28.49,2.6,1,3.36.74A1,1,0,1,1,88,40.16c-1.44.47-3-.13-4.72-.77-1.45-.55-3-1.12-4.09-.82-.83.22-1.74,1.3-2.62,2.35-1.23,1.47-2.5,3-4.3,3.34-1.6.32-3.25-.53-4.84-1.36-1.32-.69-2.69-1.39-3.73-1.25s-2,1.11-3,2.06c-1.38,1.29-2.8,2.61-4.57,2.74s-3.22-1-4.72-2c-1.2-.84-2.44-1.7-3.45-1.7s-2.25.86-3.45,1.7C43.13,45.43,41.66,46.46,40.09,46.46Z"/><path class="cls-6" d="M95.43,35.84a16.08,16.08,0,0,0,.6-4.28,9.37,9.37,0,0,0-3.31-7.28l-.07-.05a6.35,6.35,0,0,0-5.86-.92A128.35,128.35,0,0,1,48,29.69,128.13,128.13,0,0,1,9.2,23.3a6.37,6.37,0,0,0-5.85.93l-.07.05A8.69,8.69,0,0,0,.87,27.41,9.77,9.77,0,0,0,0,31.56a16.31,16.31,0,0,0,.6,4.32,8.89,8.89,0,0,0,1.15,8.37A9.17,9.17,0,0,0,.87,45.7,9.77,9.77,0,0,0,0,49.85C0,63.93,18.83,73,48,73s48-9.1,48-23.18a9.65,9.65,0,0,0-1.74-5.56A8.9,8.9,0,0,0,96,39,8.64,8.64,0,0,0,95.43,35.84Zm-2.75,6.7a6.36,6.36,0,0,0-5.89-.95A128.42,128.42,0,0,1,48,48,128.42,128.42,0,0,1,9.21,41.59a6.36,6.36,0,0,0-5.93,1,1,1,0,0,0-.15.14,6.89,6.89,0,0,1,5.78-10.6,6.74,6.74,0,0,1,2.29.4A113.47,113.47,0,0,0,48,39.08a113.31,113.31,0,0,0,36.8-6.57,6.85,6.85,0,0,1,8.51,3.55A6.72,6.72,0,0,1,94,39a6.91,6.91,0,0,1-1.09,3.73ZM2.73,28.27a6.63,6.63,0,0,1,1.8-2.36l0,0h0a4.31,4.31,0,0,1,4-.61A130.7,130.7,0,0,0,48,31.74a130.57,130.57,0,0,0,39.42-6.48,4.33,4.33,0,0,1,4,.61h0l0,0A7.28,7.28,0,0,1,94,31.56a14.67,14.67,0,0,1-.1,1.62,8.89,8.89,0,0,0-9.75-2.61A111.15,111.15,0,0,1,48,37a111.31,111.31,0,0,1-36.12-6.46,8.88,8.88,0,0,0-9.75,2.64A15.22,15.22,0,0,1,2,31.56,7.81,7.81,0,0,1,2.73,28.27ZM48,71C25.12,71,2,64.44,2,49.85a7.81,7.81,0,0,1,.7-3.29,6.67,6.67,0,0,1,1.85-2.4,4.07,4.07,0,0,1,2.54-.85,4.88,4.88,0,0,1,1.45.23A130.46,130.46,0,0,0,48,50a130.46,130.46,0,0,0,39.43-6.49,4.31,4.31,0,0,1,4,.63A7.29,7.29,0,0,1,94,49.85C94,64.44,70.88,71,48,71Z"/></svg>