<svg id="Layer_1" data-name="Layer 1" xmlns="http://www.w3.org/2000/svg" viewBox="0 0 500 500"><defs><style>.cls-1{fill:#f74634;}.cls-2{fill:#fff1e8;}.cls-3,.cls-4{fill:none;stroke-miterlimit:10;stroke-width:4.22px;}.cls-3{stroke:#5297b7;}.cls-4{stroke:#f13d23;}.cls-5{fill:#242024;}</style></defs><title>Music</title><path class="cls-1" d="M335.49,39.08,21.13,259.15A48.5,48.5,0,0,0,9.22,326.69L96.24,451a48.5,48.5,0,0,0,67.54,11.91L478.14,242.84a48.49,48.49,0,0,0,11.92-67.53L403,51A48.49,48.49,0,0,0,335.49,39.08Z"/><path class="cls-2" d="M457.85,226.93,149.25,441.78a14.63,14.63,0,0,1-20.86-4.41L117.53,420,45.85,305.24,77.7,283l22.46-15.72,10.14-7.09,16.48-11.5,6-4.2,24.47-17.11,5.78-4,16.71-11.68L196.53,200l10.12-7.06L219,184.25l28-19.56L272.26,147l10.22-7.15,9.41-6.55,6.26-4.39,19.6-13.7,5.14-3.56,10.18-7.12L342.39,98l32.27-22.55,73.07,110.3,14,21.12A14.63,14.63,0,0,1,457.85,226.93Z"/><path class="cls-3" d="M163,223.35c17.09,26.28,53.54,73.46,53.54,73.46l21.07,40-23.18,46.37-17.16-21.5-70.53-113"/><polyline class="cls-3" points="246.99 164.69 324.07 284.16 288.24 326.31 256.62 273.62 206.65 192.89"/><line class="cls-4" x1="416.81" y1="237.79" x2="333.07" y2="104.56"/><polyline class="cls-4" points="282.49 139.88 364.12 265.19 168.1 412.73 111.19 307.34"/><path class="cls-5" d="M151,350.72l-19.2,12.33a2.28,2.28,0,0,1-3.16-.69L77.7,283l22.46-15.72,51.54,80.28A2.31,2.31,0,0,1,151,350.72Z"/><path class="cls-5" d="M184.73,329.64,165.53,342a2.29,2.29,0,0,1-3.17-.69L110.3,260.19l16.48-11.5,6-4.2,52.63,82A2.3,2.3,0,0,1,184.73,329.64Z"/><path class="cls-5" d="M231.1,295.92l-19.2,12.33a2.29,2.29,0,0,1-3.17-.69l-51.47-80.18,5.78-4,16.71-11.68,52,81.09A2.31,2.31,0,0,1,231.1,295.92Z"/><path class="cls-5" d="M269,266.41l-19.2,12.33a2.29,2.29,0,0,1-3.17-.69L196.53,200l10.12-7.06L219,184.25l50.71,79A2.3,2.3,0,0,1,269,266.41Z"/><path class="cls-5" d="M342,215.59l-16.25,10.46a2.29,2.29,0,0,1-3.17-.7L272.26,147l10.22-7.15,9.41-6.55,50.77,79.1A2.28,2.28,0,0,1,342,215.59Z"/><path class="cls-5" d="M367.26,196.62,351,207.08a2.28,2.28,0,0,1-3.16-.7l-49.7-77.44,19.6-13.7L368,193.46A2.28,2.28,0,0,1,367.26,196.62Z"/><path class="cls-5" d="M393.82,178l-15.18,10.12a2.31,2.31,0,0,1-3.16-.59l-52.59-75.8,10.18-7.12L342.39,98l52.06,76.71A2.33,2.33,0,0,1,393.82,178Z"/><path class="cls-1" d="M461.88,227.93l-316,220a15,15,0,0,1-21.37-4.51l-11.11-17.79L451.52,185.79l14.34,21.63A15,15,0,0,1,461.88,227.93Z"/></svg>